<?xml version="1.0" encoding="UTF-8"?>
<svg id="_текст" data-name="текст" xmlns="http://www.w3.org/2000/svg" viewBox="0 0 1474.72 1474.72">
  <defs>
    <style>
      .cls-1 {
        fill: #fff;
      }

      .cls-2 {
        stroke-width: 16.08px;
      }

      .cls-2, .cls-3, .cls-4 {
        fill: none;
        stroke: #fff;
        stroke-miterlimit: 10;
      }

      .cls-3 {
        stroke-width: 4.02px;
      }

      .cls-5 {
        fill: #2b2d66;
      }

      .cls-4 {
        stroke-width: 8.04px;
      }
    </style>
  </defs>
  <rect class="cls-5" x="-.14" y="-.14" width="1475" height="1475" rx="737.5" ry="737.5"/>
  <g>
    <path class="cls-1" d="M1183.67,859.96v-24.04c24.04-3.2,42.18-14.22,54.43-33.05,12.25-18.83,18.37-43.58,18.37-74.26,0-26.55-3.41-47.13-10.22-61.73-6.81-14.59-16.74-25.72-29.79-33.4-13.05-7.67-29.08-11.5-48.08-11.5-14.2,0-27.59,2.38-40.18,7.13-12.59,4.75-23.1,12.39-31.51,22.92-8.41,10.53-14.05,22.12-16.91,34.77-2.86,12.65-4.29,26.24-4.29,40.78,0,31.83,6.18,57.07,18.54,75.72,12.36,18.66,30.45,29.53,54.26,32.62v24.04c-12.25.34-29.47.66-51.68.94-22.21.28-41.38.77-57.52,1.46-1.03-13.39-3.09-31.19-6.18-53.4l1.37-1.2h4.98l1.38,1.2c2.29,8.93,4.09,14.71,5.41,17.34,1.31,2.64,3.38,4.52,6.18,5.67,2.8,1.15,7.53,1.72,14.17,1.72h45.33v-2.58c-23.47-9.73-41.53-24.3-54.17-43.7-12.65-19.4-18.97-41.81-18.97-67.22,0-22.89,4.92-42.3,14.76-58.21,9.84-15.91,24.49-28.16,43.96-36.74,19.46-8.59,43.15-12.88,71.09-12.88,40.29,0,71.2,9.62,92.72,28.85,21.52,19.23,32.28,45.56,32.28,78.98,0,11.1-1.23,21.84-3.69,32.19-2.46,10.36-6.67,20.63-12.62,30.82-5.95,10.19-13.62,19.35-23.01,27.47-9.39,8.13-20.66,14.94-33.82,20.43v2.58h45.5c10.07,0,16.2-1.49,18.37-4.46,2.17-2.98,4.58-9.73,7.21-20.26l1.37-1.2h4.98l1.37,1.2c-3.09,22.09-5.15,39.89-6.18,53.4-16.25-.69-35.31-1.15-57.18-1.37l-52.03-1.03Z"/>
    <path class="cls-1" d="M144.54,862.36l-1.57-1.39v-9.06l1.57-1.39c8.48-.12,13.94-.55,16.38-1.31,2.44-.75,4.61-2.26,6.53-4.53,1.92-2.26,5.78-9.67,11.59-22.21l18.29-39.72,47.39-107.32c8.94-21.02,17.83-42.04,26.65-63.07h11.32l74.39,174.91,9.93,23.35c2.9,6.62,6.24,13.82,10.02,21.6,3.77,7.78,6.39,12.37,7.84,13.76,1.45,1.39,3.25,2.47,5.4,3.22,2.15.76,6.94,1.19,14.37,1.31l1.39,1.39v9.06l-1.39,1.39c-12.31-1.04-23.4-1.57-33.27-1.57-19.28.58-38.56,1.1-57.84,1.57l-1.39-1.39v-9.06l1.39-1.39c13.01-.23,21.14-.78,24.39-1.65,3.25-.87,4.88-2.87,4.88-6.01,0-2.55-.81-5.92-2.44-10.1l-21.43-53.14h-100.87l-18.99,44.6c-3.37,8.01-5.05,13.88-5.05,17.6,0,2.9,1.57,5.05,4.7,6.45,3.14,1.39,11.04,2.15,23.69,2.27l1.57,1.39v9.06l-1.39,1.39c-14.98-.93-28.11-1.39-39.37-1.39-12.78,0-25.67.46-38.67,1.39ZM223.98,764.63h88.15l-43.73-105.05-44.42,105.05Z"/>
    <g>
      <g>
        <path class="cls-2" d="M982.53,123.53c19.19,43.78,46.4,129,41.91,239.46-4.68,115.01-44.93,200.16-68.42,242.2l-119.98,62.78s32.14,1.53,44.03-.52c27.71-4.79,58.45-13.74,58.45-13.74,0,0-60.66,110.22-88.55,143.05-51.01,60.05-234.43,190.89-234.43,190.89l55.77-6.67c-21.01,32.25-53.67,45.47-82.61,71.07-18.19,16.09-58.41,55.93-58.41,55.93,0,0,15.13-138.93,26.85-184.64,13.68-53.37,42.61-116.74,64.14-151.89,24.39-39.83,104.17-141.35,104.17-141.35l19.16,48.3,20.65-93.73c59.2-54.85,144.01-166.08,188.71-315.4,12.38-41.36,21.69-81.21,25.49-116.48l3.08-29.25Z"/>
        <path class="cls-4" d="M524.48,1135.42l13.53-1.34-20,41.77s-.18-11.69.35-15.56c9.59-69.54,21.92-86.67,34.43-117.49,13.91-34.25,37.37-80.37,58.24-114.89,41.78-69.1,112.42-143.63,147.95-189.71,35.07-45.49,98.25-125.88,130.16-193.39,31.03-65.65,75.77-165.39,86.03-264.8"/>
        <path class="cls-3" d="M861.44,702.34c-11.18,4.96-26.46,10.39-45.16,13.34-15.14,2.39-28.5,2.53-39.17,1.88"/>
        <path class="cls-3" d="M812.18,751.09c-10.96,4.62-24.44,9.33-40.2,12.83-13.65,3.03-26.09,4.5-36.77,5.13"/>
      </g>
      <g>
        <ellipse class="cls-4" cx="512.38" cy="1231.28" rx="35.75" ry="6.29"/>
        <path class="cls-4" d="M485.89,1236.61v17.61s-8.64,15.52-24.03,43.4c-2,3.62-12.06,18.48-12.06,26.35,0,11.8,5.12,17.73,12.17,21.58,6.4,3.49,14.66,4.81,19.76,5.13,7.65.48,30.66.51,30.66.51"/>
        <path class="cls-4" d="M538.87,1236.61v17.61s8.64,15.52,24.03,43.4c2,3.62,12.06,18.48,12.06,26.35,0,11.8-5.12,17.73-12.17,21.58-6.4,3.49-14.66,4.81-19.76,5.13-7.65.48-30.66.51-30.66.51"/>
        <path class="cls-3" d="M472.48,1315.53c9.85,2.53,21.58,4.43,38.23,4.49,21.68.08,42.33-1.92,42.72-7.7.1-1.43-2.44-5.13-20.27-4.87"/>
        <path class="cls-3" d="M486.59,1253.95c5.47,1.09,11.71,1.97,18.6,2.31,13.06.65,24.34-.82,33.1-2.69"/>
      </g>
    </g>
  </g>
</svg>