<?xml version="1.0" encoding="UTF-8"?>
<svg id="_текст" data-name="текст" xmlns="http://www.w3.org/2000/svg" viewBox="0 0 1474.72 1474.72">
  <defs>
    <style>
      .cls-1 {
        stroke-width: .6px;
      }

      .cls-1, .cls-2, .cls-3, .cls-4, .cls-5, .cls-6, .cls-7, .cls-8, .cls-9, .cls-10, .cls-11, .cls-12, .cls-13, .cls-14, .cls-15, .cls-16, .cls-17, .cls-18, .cls-19, .cls-20, .cls-21 {
        stroke-miterlimit: 10;
      }

      .cls-1, .cls-8, .cls-22 {
        fill: #2b2d66;
      }

      .cls-1, .cls-12, .cls-15 {
        stroke: #fff;
      }

      .cls-2 {
        stroke-width: 5.72px;
      }

      .cls-2, .cls-3, .cls-4, .cls-5, .cls-6, .cls-7, .cls-9, .cls-10, .cls-11, .cls-13, .cls-14, .cls-16, .cls-17, .cls-18, .cls-19, .cls-20, .cls-21 {
        fill: none;
      }

      .cls-2, .cls-7, .cls-9, .cls-10, .cls-11, .cls-16, .cls-17, .cls-20 {
        stroke: #d8b541;
      }

      .cls-3, .cls-4, .cls-5, .cls-6, .cls-8, .cls-13, .cls-14, .cls-18, .cls-19, .cls-21 {
        stroke: #2b2d66;
      }

      .cls-3, .cls-17 {
        stroke-width: 1.37px;
      }

      .cls-4, .cls-11, .cls-12 {
        stroke-width: 2.73px;
      }

      .cls-5 {
        stroke-width: 6.83px;
      }

      .cls-6 {
        stroke-width: .68px;
      }

      .cls-7, .cls-13 {
        stroke-width: 5.47px;
      }

      .cls-8, .cls-19 {
        stroke-width: 1.03px;
      }

      .cls-9 {
        stroke-width: 6.86px;
      }

      .cls-10, .cls-18 {
        stroke-width: 4.58px;
      }

      .cls-12, .cls-15 {
        fill: #fff;
      }

      .cls-23 {
        fill: #d8b541;
      }

      .cls-23, .cls-22 {
        stroke-width: 0px;
      }

      .cls-14 {
        stroke-width: 8.2px;
      }

      .cls-15 {
        stroke-width: 2.39px;
      }

      .cls-16 {
        stroke-width: 1.14px;
      }

      .cls-20 {
        stroke-width: 2.29px;
      }

      .cls-21 {
        stroke-width: 4.1px;
      }
    </style>
  </defs>
  <path class="cls-9" d="M1302.65,602.74c-42.6-6.42-95.03-28.59-124.32-72.71-2.89-4.35-5.46-8.75-7.76-13.15-2.93-5.59-5.42-11.18-7.55-16.63-6.73-17.21-9.88-33.05-11.94-43.43-5.47-27.51-3.44-41.5-4.67-60.36-.32-4.84-7.82-99.86-75.35-149.15-34.42-25.12-62.7-32.28-100.52-35.78-4.69-.44-30.32-.33-58.18-5.11-7.47-1.28-13.59-2.44-17.52-3.5-22.06-5.99-28.91-13.57-28.91-13.57"/>
  <path class="cls-2" d="M1171.73,519.07s-11.32-23.31-8.98-52.23c4.77-59.08,64.49-51.22,80.42-38.94,43.16,33.25,17.88,80.4,14.41,107.78-2.68,21.13,5.11,33.18,12.95,38.51,11.83,8.03,24.25,4.26,30.38-.58,11.2-8.86,13.44-26.87,1.87-35.27-17.08-12.41-34.59,5.48-21,19.06"/>
  <circle class="cls-23" cx="1282.89" cy="551.64" r="7.98"/>
  <path class="cls-2" d="M1081.36,255.48s-23.53-15.82-52.48-17.69c-59.15-3.81-59.85,58.29-50.15,73.95,27.33,44.11,76.97,29.3,104.56,29.83,21.29.4,32.09,9.84,36.23,18.37,6.24,12.87.72,24.61-4.97,29.97-10.38,9.8-28.53,9.41-35.17-3.24-9.82-18.7,9.72-32.75,21.2-17.35"/>
  <circle class="cls-23" cx="1095.76" cy="370.74" r="7.98"/>
  <circle class="cls-23" cx="939.31" cy="174.28" r="7.98"/>
  <path class="cls-10" d="M943.98,171.55c-3.21-7.45-17.01-7.01-17.23,7.59-.17,11.1,10.95,24.68,47.32,32.71"/>
  <circle class="cls-23" cx="1004.43" cy="293.53" r="7.98"/>
  <path class="cls-10" d="M1009.55,291.78c3.53,7.3-5.82,17.45-17.01,8.07-8.51-7.13-18.34-35.65,10.85-58.78"/>
  <circle class="cls-23" cx="1050.39" cy="277.22" r="7.98"/>
  <circle class="cls-23" cx="1174.63" cy="346.61" r="7.98"/>
  <path class="cls-10" d="M1051.58,282.5c-7.64,2.71-16.71-7.69-6.16-17.8,8.02-7.68,39.37-15.24,59.17,16.31"/>
  <circle class="cls-23" cx="1045.26" cy="314.01" r="13.38"/>
  <path class="cls-10" d="M1040.77,324.13c-12.53-5.27-11.7-25.11,12.46-28.99,30.01-4.82,44.28,43.84,10.99,47.37"/>
  <circle class="cls-23" cx="1238.37" cy="494.24" r="13.38"/>
  <path class="cls-10" d="M1249.23,492.03c-2.46-13.37-25.73-16.72-33.22,4.59-10.06,28.6,27.46,55.5,45.42,20.57"/>
  <circle class="cls-23" cx="1215.56" cy="450.18" r="7.98"/>
  <path class="cls-10" d="M1210.16,450.24c-.89,8.06,12.13,14.71,20.06,2.44,5.42-8.38,2.02-35.44-36.75-30.22"/>
  <circle class="cls-23" cx="1198.3" cy="490.13" r="7.98"/>
  <path class="cls-10" d="M1202.14,493.94c6.36-5.04,2.13-17.71-12.37-15.98-12.42,1.48-29.01,15.68-5.94,59.79"/>
  <path class="cls-10" d="M1119.91,382.43s-5.06,15.58-5.5,21.47c-1.11,14.92,8.23,20.4,14.31,21.61,12.41,2.48,18.16-9.02,18.16-14.75"/>
  <path class="cls-10" d="M1078.24,339.79s10.81-11.2,25.5-11.82c23.17-.98,32.52,17.81,32.52,17.81"/>
  <path class="cls-2" d="M1062.86,243.79c-2.53-1.78-52.43-19.52-91.91-11.29-9.22,1.92-26.61,5.06-31.64,22.98-1.9,6.77-.54,20.19,12.36,22.33,19.76,3.28,14.07-19.07,14.07-19.07"/>
  <path class="cls-2" d="M947.94,241.78s-21.66,13.12-40.53,7.84c-19.76-5.53-22.64-19.74-21.52-30.51,1.07-10.27,7.3-15.36,7.3-15.36"/>
  <path class="cls-10" d="M1256.9,527.16s-13.07,10.29-17.19,25.07c-5.26,18.89,7.54,34.02,7.54,34.02"/>
  <path class="cls-2" d="M896.38,203.74s4.38,16.52,14.84,27.74c13.38,14.33,40.65,7.64,40.65,7.64"/>
  <path class="cls-10" d="M1162.43,488.36s-11.15-38.71,3.82-79.35c8.18-22.2,21.54-32.45,27.21-44.1,14.11-29.01,1.7-44.69-14.65-44.69-9.93,0-16.94,8.03-17.67,15.68-.53,5.59,2.19,17.52,14.17,16.35"/>
  <path class="cls-10" d="M1184.06,378.72s8.82-6.19,20.6-2.49c10.9,3.43,11.34,19.19,4.62,23.13-45.17,26.5-48.1,64.66-48.1,64.66"/>
  <path class="cls-9" d="M172.21,602.74c42.6-6.42,95.03-28.59,124.32-72.71,2.89-4.35,5.46-8.75,7.76-13.15,2.93-5.59,5.42-11.18,7.55-16.63,6.73-17.21,9.88-33.05,11.94-43.43,5.47-27.51,3.44-41.5,4.67-60.36.32-4.84,7.82-99.86,75.35-149.15,34.42-25.12,62.7-32.28,100.52-35.78,4.69-.44,30.32-.33,58.18-5.11,7.47-1.28,13.59-2.44,17.52-3.5,22.06-5.99,28.91-13.57,28.91-13.57"/>
  <path class="cls-2" d="M303.13,519.07s11.32-23.31,8.98-52.23c-4.77-59.08-64.49-51.22-80.42-38.94-43.16,33.25-17.88,80.4-14.41,107.78,2.68,21.13-5.11,33.18-12.95,38.51-11.83,8.03-24.25,4.26-30.38-.58-11.2-8.86-13.44-26.87-1.87-35.27,17.08-12.41,34.59,5.48,21,19.06"/>
  <circle class="cls-23" cx="191.97" cy="551.64" r="7.98"/>
  <path class="cls-2" d="M393.5,255.48s23.53-15.82,52.48-17.69c59.15-3.81,59.85,58.29,50.15,73.95-27.33,44.11-76.97,29.3-104.56,29.83-21.29.4-32.09,9.84-36.23,18.37-6.24,12.87-.72,24.61,4.97,29.97,10.38,9.8,28.53,9.41,35.17-3.24,9.82-18.7-9.72-32.75-21.2-17.35"/>
  <circle class="cls-23" cx="379.1" cy="370.74" r="7.98"/>
  <circle class="cls-23" cx="535.55" cy="174.28" r="7.98"/>
  <path class="cls-10" d="M530.87,171.55c3.21-7.45,17.01-7.01,17.23,7.59.17,11.1-10.95,24.68-47.32,32.71"/>
  <circle class="cls-23" cx="470.43" cy="293.53" r="7.98"/>
  <path class="cls-10" d="M465.31,291.78c-3.53,7.3,5.82,17.45,17.01,8.07,8.51-7.13,18.34-35.65-10.85-58.78"/>
  <circle class="cls-23" cx="424.46" cy="277.22" r="7.98"/>
  <circle class="cls-23" cx="300.22" cy="346.61" r="7.98"/>
  <path class="cls-10" d="M423.28,282.5c7.64,2.71,16.71-7.69,6.16-17.8-8.02-7.68-39.37-15.24-59.17,16.31"/>
  <circle class="cls-23" cx="429.6" cy="314.01" r="13.38"/>
  <path class="cls-10" d="M434.09,324.13c12.53-5.27,11.7-25.11-12.46-28.99-30.01-4.82-44.28,43.84-10.99,47.37"/>
  <circle class="cls-23" cx="236.49" cy="494.24" r="13.38"/>
  <path class="cls-10" d="M225.63,492.03c2.46-13.37,25.73-16.72,33.22,4.59,10.06,28.6-27.46,55.5-45.42,20.57"/>
  <circle class="cls-23" cx="259.3" cy="450.18" r="7.98"/>
  <path class="cls-10" d="M264.7,450.24c.89,8.06-12.13,14.71-20.06,2.44-5.42-8.38-2.02-35.44,36.75-30.22"/>
  <circle class="cls-23" cx="276.56" cy="490.13" r="7.98"/>
  <path class="cls-10" d="M272.72,493.94c-6.36-5.04-2.13-17.71,12.37-15.98,12.42,1.48,29.01,15.68,5.94,59.79"/>
  <path class="cls-10" d="M354.95,382.43s5.06,15.58,5.5,21.47c1.11,14.92-8.23,20.4-14.31,21.61-12.41,2.48-18.16-9.02-18.16-14.75"/>
  <path class="cls-10" d="M396.62,339.79s-10.81-11.2-25.5-11.82c-23.17-.98-32.52,17.81-32.52,17.81"/>
  <path class="cls-2" d="M412,243.79c2.53-1.78,52.43-19.52,91.91-11.29,9.22,1.92,26.61,5.06,31.64,22.98,1.9,6.77.54,20.19-12.36,22.33-19.76,3.28-14.07-19.07-14.07-19.07"/>
  <path class="cls-2" d="M526.92,241.78s21.66,13.12,40.53,7.84c19.76-5.53,22.64-19.74,21.52-30.51-1.07-10.27-7.3-15.36-7.3-15.36"/>
  <path class="cls-10" d="M217.96,527.16s13.07,10.29,17.19,25.07c5.26,18.89-7.54,34.02-7.54,34.02"/>
  <path class="cls-2" d="M578.48,203.74s-4.38,16.52-14.84,27.74c-13.38,14.33-40.65,7.64-40.65,7.64"/>
  <path class="cls-10" d="M312.43,488.36s11.15-38.71-3.82-79.35c-8.18-22.2-21.54-32.45-27.21-44.1-14.11-29.01-1.7-44.69,14.65-44.69,9.93,0,16.94,8.03,17.67,15.68.53,5.59-2.19,17.52-14.17,16.35"/>
  <path class="cls-10" d="M290.79,378.72s-8.82-6.19-20.6-2.49c-10.9,3.43-11.34,19.19-4.62,23.13,45.17,26.5,48.1,64.66,48.1,64.66"/>
  <path class="cls-9" d="M172.21,867.79c42.6,6.42,95.03,28.59,124.32,72.71,2.89,4.35,5.46,8.75,7.76,13.15,2.93,5.59,5.42,11.18,7.55,16.63,6.73,17.21,9.88,33.05,11.94,43.43,5.47,27.51,3.44,41.5,4.67,60.36.32,4.84,7.82,99.86,75.35,149.15,34.42,25.12,62.7,32.28,100.52,35.78,4.69.44,30.32.33,58.18,5.11,7.47,1.28,13.59,2.44,17.52,3.5,22.06,5.99,28.91,13.57,28.91,13.57"/>
  <path class="cls-2" d="M303.13,951.46s11.32,23.31,8.98,52.23c-4.77,59.08-64.49,51.22-80.42,38.94-43.16-33.25-17.88-80.4-14.41-107.78,2.68-21.13-5.11-33.18-12.95-38.51-11.83-8.03-24.25-4.26-30.38.58-11.2,8.86-13.44,26.87-1.87,35.27,17.08,12.41,34.59-5.48,21-19.06"/>
  <circle class="cls-23" cx="191.97" cy="918.89" r="7.98"/>
  <path class="cls-2" d="M393.5,1215.05s23.53,15.82,52.48,17.69c59.15,3.81,59.85-58.29,50.15-73.95-27.33-44.11-76.97-29.3-104.56-29.83-21.29-.4-32.09-9.84-36.23-18.37-6.24-12.87-.72-24.61,4.97-29.97,10.38-9.8,28.53-9.41,35.17,3.24,9.82,18.7-9.72,32.75-21.2,17.35"/>
  <circle class="cls-23" cx="379.1" cy="1099.79" r="7.98"/>
  <circle class="cls-23" cx="535.55" cy="1296.25" r="7.98"/>
  <path class="cls-10" d="M530.87,1298.97c3.21,7.45,17.01,7.01,17.23-7.59.17-11.1-10.95-24.68-47.32-32.71"/>
  <circle class="cls-23" cx="470.43" cy="1176.99" r="7.98"/>
  <path class="cls-10" d="M465.31,1178.75c-3.53-7.3,5.82-17.45,17.01-8.07,8.51,7.13,18.34,35.65-10.85,58.78"/>
  <circle class="cls-23" cx="424.46" cy="1193.3" r="7.98"/>
  <circle class="cls-23" cx="300.22" cy="1123.91" r="7.98"/>
  <path class="cls-10" d="M423.28,1188.03c7.64-2.71,16.71,7.69,6.16,17.8-8.02,7.68-39.37,15.24-59.17-16.31"/>
  <circle class="cls-23" cx="429.6" cy="1156.52" r="13.38"/>
  <path class="cls-10" d="M434.09,1146.39c12.53,5.27,11.7,25.11-12.46,28.99-30.01,4.82-44.28-43.84-10.99-47.37"/>
  <circle class="cls-23" cx="236.49" cy="976.28" r="13.38"/>
  <path class="cls-10" d="M225.63,978.5c2.46,13.37,25.73,16.72,33.22-4.59,10.06-28.6-27.46-55.5-45.42-20.57"/>
  <circle class="cls-23" cx="259.3" cy="1020.35" r="7.98"/>
  <path class="cls-10" d="M264.7,1020.29c.89-8.06-12.13-14.71-20.06-2.44-5.42,8.38-2.02,35.44,36.75,30.22"/>
  <circle class="cls-23" cx="276.56" cy="980.39" r="7.98"/>
  <path class="cls-10" d="M272.72,976.59c-6.36,5.04-2.13,17.71,12.37,15.98,12.42-1.48,29.01-15.68,5.94-59.79"/>
  <path class="cls-10" d="M354.95,1088.09s5.06-15.58,5.5-21.47c1.11-14.92-8.23-20.4-14.31-21.61-12.41-2.48-18.16,9.02-18.16,14.75"/>
  <path class="cls-10" d="M396.62,1130.74s-10.81,11.2-25.5,11.82c-23.17.98-32.52-17.81-32.52-17.81"/>
  <path class="cls-2" d="M412,1226.73c2.53,1.78,52.43,19.52,91.91,11.29,9.22-1.92,26.61-5.06,31.64-22.98,1.9-6.77.54-20.19-12.36-22.33-19.76-3.28-14.07,19.07-14.07,19.07"/>
  <path class="cls-2" d="M526.92,1228.75s21.66-13.12,40.53-7.84,22.64,19.74,21.52,30.51c-1.07,10.27-7.3,15.36-7.3,15.36"/>
  <path class="cls-10" d="M217.96,943.37s13.07-10.29,17.19-25.07c5.26-18.89-7.54-34.02-7.54-34.02"/>
  <path class="cls-2" d="M578.48,1266.78s-4.38-16.52-14.84-27.74c-13.38-14.33-40.65-7.64-40.65-7.64"/>
  <path class="cls-10" d="M312.43,982.17s11.15,38.71-3.82,79.35c-8.18,22.2-21.54,32.45-27.21,44.1-14.11,29.01-1.7,44.69,14.65,44.69,9.93,0,16.94-8.03,17.67-15.68.53-5.59-2.19-17.52-14.17-16.35"/>
  <path class="cls-10" d="M290.79,1091.8s-8.82,6.19-20.6,2.49c-10.9-3.43-11.34-19.19-4.62-23.13,45.17-26.5,48.1-64.66,48.1-64.66"/>
  <path class="cls-9" d="M1302.65,867.79c-42.6,6.42-95.03,28.59-124.32,72.71-2.89,4.35-5.46,8.75-7.76,13.15-2.93,5.59-5.42,11.18-7.55,16.63-6.73,17.21-9.88,33.05-11.94,43.43-5.47,27.51-3.44,41.5-4.67,60.36-.32,4.84-7.82,99.86-75.35,149.15-34.42,25.12-62.7,32.28-100.52,35.78-4.69.44-30.32.33-58.18,5.11-7.47,1.28-13.59,2.44-17.52,3.5-22.06,5.99-28.91,13.57-28.91,13.57"/>
  <path class="cls-2" d="M1171.73,951.46s-11.32,23.31-8.98,52.23c4.77,59.08,64.49,51.22,80.42,38.94,43.16-33.25,17.88-80.4,14.41-107.78-2.68-21.13,5.11-33.18,12.95-38.51,11.83-8.03,24.25-4.26,30.38.58,11.2,8.86,13.44,26.87,1.87,35.27-17.08,12.41-34.59-5.48-21-19.06"/>
  <circle class="cls-23" cx="1282.89" cy="918.89" r="7.98"/>
  <path class="cls-2" d="M1081.36,1215.05s-23.53,15.82-52.48,17.69c-59.15,3.81-59.85-58.29-50.15-73.95,27.33-44.11,76.97-29.3,104.56-29.83,21.29-.4,32.09-9.84,36.23-18.37,6.24-12.87.72-24.61-4.97-29.97-10.38-9.8-28.53-9.41-35.17,3.24-9.82,18.7,9.72,32.75,21.2,17.35"/>
  <circle class="cls-23" cx="1095.76" cy="1099.79" r="7.98"/>
  <circle class="cls-23" cx="939.31" cy="1296.25" r="7.98"/>
  <path class="cls-10" d="M943.98,1298.97c-3.21,7.45-17.01,7.01-17.23-7.59-.17-11.1,10.95-24.68,47.32-32.71"/>
  <circle class="cls-23" cx="1004.43" cy="1176.99" r="7.98"/>
  <path class="cls-10" d="M1009.55,1178.75c3.53-7.3-5.82-17.45-17.01-8.07-8.51,7.13-18.34,35.65,10.85,58.78"/>
  <circle class="cls-23" cx="1050.39" cy="1193.3" r="7.98"/>
  <circle class="cls-23" cx="1174.63" cy="1123.91" r="7.98"/>
  <path class="cls-10" d="M1051.58,1188.03c-7.64-2.71-16.71,7.69-6.16,17.8,8.02,7.68,39.37,15.24,59.17-16.31"/>
  <circle class="cls-23" cx="1045.26" cy="1156.52" r="13.38"/>
  <path class="cls-10" d="M1040.77,1146.39c-12.53,5.27-11.7,25.11,12.46,28.99,30.01,4.82,44.28-43.84,10.99-47.37"/>
  <circle class="cls-23" cx="1238.37" cy="976.28" r="13.38"/>
  <path class="cls-10" d="M1249.23,978.5c-2.46,13.37-25.73,16.72-33.22-4.59-10.06-28.6,27.46-55.5,45.42-20.57"/>
  <circle class="cls-23" cx="1215.56" cy="1020.35" r="7.98"/>
  <path class="cls-10" d="M1210.16,1020.29c-.89-8.06,12.13-14.71,20.06-2.44,5.42,8.38,2.02,35.44-36.75,30.22"/>
  <circle class="cls-23" cx="1198.3" cy="980.39" r="7.98"/>
  <path class="cls-10" d="M1202.14,976.59c6.36,5.04,2.13,17.71-12.37,15.98-12.42-1.48-29.01-15.68-5.94-59.79"/>
  <path class="cls-10" d="M1119.91,1088.09s-5.06-15.58-5.5-21.47c-1.11-14.92,8.23-20.4,14.31-21.61,12.41-2.48,18.16,9.02,18.16,14.75"/>
  <path class="cls-10" d="M1078.24,1130.74s10.81,11.2,25.5,11.82c23.17.98,32.52-17.81,32.52-17.81"/>
  <path class="cls-2" d="M1062.86,1226.73c-2.53,1.78-52.43,19.52-91.91,11.29-9.22-1.92-26.61-5.06-31.64-22.98-1.9-6.77-.54-20.19,12.36-22.33,19.76-3.28,14.07,19.07,14.07,19.07"/>
  <path class="cls-2" d="M947.94,1228.75s-21.66-13.12-40.53-7.84c-19.76,5.53-22.64,19.74-21.52,30.51,1.07,10.27,7.3,15.36,7.3,15.36"/>
  <path class="cls-10" d="M1256.9,943.37s-13.07-10.29-17.19-25.07c-5.26-18.89,7.54-34.02,7.54-34.02"/>
  <path class="cls-2" d="M896.38,1266.78s4.38-16.52,14.84-27.74c13.38-14.33,40.65-7.64,40.65-7.64"/>
  <path class="cls-10" d="M1162.43,982.17s-11.15,38.71,3.82,79.35c8.18,22.2,21.54,32.45,27.21,44.1,14.11,29.01,1.7,44.69-14.65,44.69-9.93,0-16.94-8.03-17.67-15.68-.53-5.59,2.19-17.52,14.17-16.35"/>
  <path class="cls-10" d="M1184.06,1091.8s8.82,6.19,20.6,2.49c10.9-3.43,11.34-19.19,4.62-23.13-45.17-26.5-48.1-64.66-48.1-64.66"/>
  <path class="cls-9" d="M714.11,265.03l-5.62-219.92c0-17.75,12.86-32.13,28.72-32.13s28.72,14.39,28.72,32.13l-4.41,219.92"/>
  <path class="cls-20" d="M730.48,265.03l-1.64-148.57c0-11.99,2.09-18.64,8.37-18.64s8.37,6.65,8.37,18.64l-1.29,148.57"/>
  <path class="cls-20" d="M673.7,268.64l-8.17-103.48c-.57-8.36.58-13.09,4.95-13.39,4.58-.31,6.15,4.24,6.72,12.6l6.13,103.62"/>
  <path class="cls-20" d="M801.05,267.7l8.17-103.48c.57-8.36-.58-13.09-4.95-13.39-4.58-.31-6.15,4.24-6.72,12.6l-6.13,103.62"/>
  <path class="cls-16" d="M843.49,275.78l12.33-85.59c.92-6.92.22-10.92-3.4-11.4-3.79-.5-5.34,3.2-6.26,10.11l-10.64,85.82"/>
  <path class="cls-16" d="M629.79,275.78l-12.33-85.59c-.92-6.92-.22-10.92,3.4-11.4s5.34,3.2,6.26,10.11l10.64,85.82"/>
  <path class="cls-9" d="M776.95,268.27l6.54-177.54c.89-14.3,11.98-25.25,24.77-24.45,12.78.8,22.42,13.04,21.53,27.35l-14.63,177.04"/>
  <path class="cls-9" d="M697.19,268.27l-6.54-177.54c-.89-14.3-11.98-25.25-24.77-24.45-12.78.8-22.42,13.04-21.53,27.35l14.63,177.04"/>
  <path class="cls-2" d="M646.16,273.28l-12.27-114.4c-1.23-9.2-8.88-15.77-17.11-14.67-8.22,1.1-13.89,9.44-12.67,18.64l18.07,117.62"/>
  <path class="cls-2" d="M827.18,273.11l12.27-114.4c1.23-9.2,8.88-15.77,17.11-14.67,8.22,1.1,13.89,9.44,12.67,18.64l-17.47,113.7"/>
  <path class="cls-9" d="M1210.27,712.36l219.92-5.62c17.75,0,32.13,12.86,32.13,28.72s-14.39,28.72-32.13,28.72l-219.92-4.41"/>
  <path class="cls-20" d="M1210.27,728.72l148.57-1.64c11.99,0,18.64,2.09,18.64,8.37s-6.65,8.37-18.64,8.37l-148.57-1.29"/>
  <path class="cls-20" d="M1206.66,671.95l103.48-8.17c8.36-.57,13.09.58,13.39,4.95.31,4.58-4.24,6.15-12.6,6.72l-103.62,6.13"/>
  <path class="cls-20" d="M1207.6,799.29l103.48,8.17c8.36.57,13.09-.58,13.39-4.95.31-4.58-4.24-6.15-12.6-6.72l-103.62-6.13"/>
  <path class="cls-16" d="M1199.51,841.73l85.59,12.33c6.92.92,10.92.22,11.4-3.4.5-3.79-3.2-5.34-10.11-6.26l-85.82-10.64"/>
  <path class="cls-16" d="M1199.51,628.03l85.59-12.33c6.92-.92,10.92-.22,11.4,3.4s-3.2,5.34-10.11,6.26l-85.82,10.64"/>
  <path class="cls-9" d="M1207.03,775.19l177.54,6.54c14.3.89,25.25,11.98,24.45,24.77-.8,12.78-13.04,22.42-27.35,21.53l-177.04-14.63"/>
  <path class="cls-9" d="M1207.03,695.43l177.54-6.54c14.3-.89,25.25-11.98,24.45-24.77-.8-12.78-13.04-22.42-27.35-21.53l-177.04,14.63"/>
  <path class="cls-2" d="M1202.02,644.4l114.4-12.27c9.2-1.23,15.77-8.88,14.67-17.11-1.1-8.22-9.44-13.89-18.64-12.67l-117.62,18.07"/>
  <path class="cls-2" d="M1202.18,825.42l114.4,12.27c9.2,1.23,15.77,8.88,14.67,17.11-1.1,8.22-9.44,13.89-18.64,12.67l-113.7-17.47"/>
  <path class="cls-9" d="M759.22,1209.7l5.62,219.92c0,17.75-12.86,32.13-28.72,32.13s-28.72-14.39-28.72-32.13l4.41-219.92"/>
  <path class="cls-20" d="M742.86,1209.7l1.64,148.57c0,11.99-2.09,18.64-8.37,18.64s-8.37-6.65-8.37-18.64l1.29-148.57"/>
  <path class="cls-20" d="M799.63,1206.08l8.17,103.48c.57,8.36-.58,13.09-4.95,13.39-4.58.31-6.15-4.24-6.72-12.6l-6.13-103.62"/>
  <path class="cls-20" d="M672.29,1207.02l-8.17,103.48c-.57,8.36.58,13.09,4.95,13.39,4.58.31,6.15-4.24,6.72-12.6l6.13-103.62"/>
  <path class="cls-16" d="M629.85,1198.94l-12.33,85.59c-.92,6.92-.22,10.92,3.4,11.4,3.79.5,5.34-3.2,6.26-10.11l10.64-85.82"/>
  <path class="cls-16" d="M843.55,1198.94l12.33,85.59c.92,6.92.22,10.92-3.4,11.4-3.79.5-5.34-3.2-6.26-10.11l-10.64-85.82"/>
  <path class="cls-9" d="M696.39,1206.46l-6.54,177.54c-.89,14.3-11.98,25.25-24.77,24.45-12.78-.8-22.42-13.04-21.53-27.35l14.63-177.04"/>
  <path class="cls-9" d="M776.15,1206.46l6.54,177.54c.89,14.3,11.98,25.25,24.77,24.45,12.78-.8,22.42-13.04,21.53-27.35l-14.63-177.04"/>
  <path class="cls-2" d="M827.18,1201.44l12.27,114.4c1.23,9.2,8.88,15.77,17.11,14.67,8.22-1.1,13.89-9.44,12.67-18.64l-18.07-117.62"/>
  <path class="cls-2" d="M646.16,1201.61l-12.27,114.4c-1.23,9.2-8.88,15.77-17.11,14.67-8.22-1.1-13.89-9.44-12.67-18.64l17.47-113.7"/>
  <path class="cls-9" d="M264.45,757.46l-219.92,5.62c-17.75,0-32.13-12.86-32.13-28.72s14.39-28.72,32.13-28.72l219.92,4.41"/>
  <path class="cls-20" d="M264.45,741.1l-148.57,1.64c-11.99,0-18.64-2.09-18.64-8.37s6.65-8.37,18.64-8.37l148.57,1.29"/>
  <path class="cls-20" d="M268.07,797.87l-103.48,8.17c-8.36.57-13.09-.58-13.39-4.95-.31-4.58,4.24-6.15,12.6-6.72l103.62-6.13"/>
  <path class="cls-20" d="M267.13,670.53l-103.48-8.17c-8.36-.57-13.09.58-13.39,4.95s4.24,6.15,12.6,6.72l103.62,6.13"/>
  <path class="cls-16" d="M275.21,628.09l-85.59-12.33c-6.92-.92-10.92-.22-11.4,3.4-.5,3.79,3.2,5.34,10.11,6.26l85.82,10.64"/>
  <path class="cls-16" d="M275.21,841.79l-85.59,12.33c-6.92.92-10.92.22-11.4-3.4-.5-3.79,3.2-5.34,10.11-6.26l85.82-10.64"/>
  <path class="cls-9" d="M267.69,694.63l-177.54-6.54c-14.3-.89-25.25-11.98-24.45-24.77s13.04-22.42,27.35-21.53l177.04,14.63"/>
  <path class="cls-9" d="M267.69,774.39l-177.54,6.54c-14.3.89-25.25,11.98-24.45,24.77s13.04,22.42,27.35,21.53l177.04-14.63"/>
  <path class="cls-2" d="M272.71,825.42l-114.4,12.27c-9.2,1.23-15.77,8.88-14.67,17.11,1.1,8.22,9.44,13.89,18.64,12.67l117.62-18.07"/>
  <path class="cls-2" d="M272.54,644.4l-114.4-12.27c-9.2-1.23-15.77-8.88-14.67-17.11,1.1-8.22,9.44-13.89,18.64-12.67l113.7,17.47"/>
  <circle class="cls-18" cx="736.88" cy="737.36" r="472.34"/>
  <polyline class="cls-13" points="962.58 893.74 947.94 893.74 947.94 913.7"/>
  <line class="cls-3" x1="959.41" y1="899.69" x2="947.94" y2="899.69"/>
  <path class="cls-4" d="M984.62,978.1c-.75-2.87-1.95-5.56-3.52-7.98"/>
  <line class="cls-21" x1="962.2" y1="893.07" x2="957.48" y2="893.07"/>
  <path class="cls-21" d="M957.48,866.82h2.73c.28.87.76,2.07,1.59,3.36.21.32.95,1.43,2.27,2.69,1.34,1.27,1.99,1.48,3.36,2.52.77.59,3.21,2.48,4.66,4.62"/>
  <path class="cls-21" d="M960.19,866.82h-2.73c-.28.87-.76,2.07-1.59,3.36-.21.32-.95,1.43-2.27,2.69-1.34,1.27-1.99,1.48-3.36,2.52-.77.59-3.21,2.48-4.66,4.62-.79,1.16-1.5,2.62-1.64,5.45-.04.86-.23,3.25,1.34,5.54.84,1.23,1.72,1.62,2.45,2.08h12.45"/>
  <path class="cls-5" d="M993.76,978.6c-.82-5.46-2.8-10.28-5.67-14.33"/>
  <polyline class="cls-5" points="491.31 961.11 491.31 939.08 507.54 918.11"/>
  <rect class="cls-13" x="507.54" y="893.74" width="21.34" height="24.36"/>
  <line class="cls-4" x1="491.31" y1="939.08" x2="543.13" y2="938.96"/>
  <line class="cls-3" x1="507.54" y1="900.43" x2="528.88" y2="900.43"/>
  <path class="cls-4" d="M492.21,978.1c3.1-11.87,13.9-20.62,26.74-20.62,9.23,0,17.4,4.52,22.42,11.47"/>
  <path class="cls-21" d="M519.48,866.82h-2.73c-.28.87-.76,2.07-1.59,3.36-.21.32-.95,1.43-2.27,2.69-1.34,1.27-1.99,1.48-3.36,2.52-.77.59-3.21,2.48-4.66,4.62-.79,1.16-1.5,2.62-1.64,5.45-.04.86-.23,3.25,1.34,5.54.84,1.23,1.72,1.62,2.45,2.08h12.45"/>
  <path class="cls-21" d="M516.77,866.82h2.73c.28.87.76,2.07,1.59,3.36.21.32.95,1.43,2.27,2.69,1.34,1.27,1.99,1.48,3.36,2.52.77.59,3.21,2.48,4.66,4.62.79,1.16,1.5,2.62,1.64,5.45.04.86.23,3.25-1.34,5.54-.84,1.23-1.72,1.62-2.45,2.08h-12.45"/>
  <path class="cls-5" d="M483.07,978.6c2.67-17.71,17.45-28.65,35.91-28.65,8.3,0,16.26,2.73,22.39,7.2"/>
  <line class="cls-5" x1="528.88" y1="918.11" x2="543.83" y2="936.33"/>
  <path class="cls-3" d="M507.54,903.6c.72-.84,1.78-1.37,2.97-1.37,1.92,0,3.51,1.38,3.84,3.21h.02c.33-1.82,1.92-3.21,3.84-3.21s3.51,1.38,3.84,3.21h.1c.33-1.82,1.92-3.21,3.84-3.21,1.14,0,2.16.49,2.87,1.26"/>
  <path class="cls-21" d="M490.12,1001.97v-10.92s1.65-.86,2.11-3.1c.28-1.33-.04-3.53-.04-3.53l1.36-1.36v-4.97h-8.42s-6.11,0-6.11,0v4.97l1.36,1.36s-.32,2.2-.04,3.53c.47,2.24,2.11,3.1,2.11,3.1v7.62"/>
  <path class="cls-21" d="M993.26,1000.77v-9.86s1.65-.86,2.11-3.1c.28-1.33-.04-3.53-.04-3.53l1.36-1.36v-4.97h-8.42s-6.11,0-6.11,0v4.97l1.36,1.36s-.32,2.2-.04,3.53c.47,2.24,2.11,3.1,2.11,3.1v13.7"/>
  <path class="cls-4" d="M508.05,1007.63v-26.43c1.17-3.15,4.47-6.61,9.84-6.61,5.99,0,9.01,3.7,9.84,6.61v31.78"/>
  <path class="cls-19" d="M960.12,868.9c-.06.84-.27,2.2-1.14,3.52-.45.7-1.18,1.52-3.35,2.78-2.74,1.59-3.82,1.56-5.68,2.55-1.32.7-3.13,1.97-4.88,4.43"/>
  <path class="cls-19" d="M961.37,871.17c.02.71-.05,1.79-.62,2.89-.43.83-1.04,1.48-2.84,2.72-2.41,1.67-3.12,1.76-4.65,2.84-.52.37-2.44,1.73-3.69,3.63-2.06,3.16-1.64,6.88-1.31,8.63"/>
  <path class="cls-19" d="M963.61,873.33c.09.59-.34,1.78-.74,2.44-.48.79-.81,1.64-2.55,3.18-2.26,2-2.53,1.74-3.63,2.89-.4.42-1.8,1.96-2.55,4.43-.71,2.33-.49,4.35-.28,5.45"/>
  <path class="cls-19" d="M965.75,875.54c-.09.61-.44,1.34-1.02,2.33-.65,1.09-1.06,1.55-2.1,2.84-1.33,1.64-2.38,2.93-2.89,4.65-.42,1.39-.33,2.59-.28,3.29.1,1.55.52,2.79.85,3.58"/>
  <path class="cls-19" d="M968.18,877.25c-.11.7-.33,1.78-.79,3.03-.74,1.97-1.27,2.15-1.85,3.78-.32.9-.99,2.86-.42,5.11.38,1.47,1.14,2.5,1.63,3.06"/>
  <path class="cls-19" d="M516.58,869.09c.06.84.27,2.2,1.14,3.52.45.7,1.18,1.52,3.35,2.78,2.74,1.59,3.82,1.56,5.68,2.55,1.32.7,3.13,1.97,4.88,4.43"/>
  <path class="cls-19" d="M515.33,871.36c-.02.71.05,1.79.62,2.89.43.83,1.04,1.48,2.84,2.72,2.41,1.67,3.12,1.76,4.65,2.84.52.37,2.44,1.73,3.69,3.63,2.06,3.16,1.64,6.88,1.31,8.63"/>
  <path class="cls-19" d="M513.1,873.51c-.09.59.34,1.78.74,2.44.48.79.81,1.64,2.55,3.18,2.26,2,2.53,1.74,3.63,2.89.4.42,1.8,1.96,2.55,4.43.71,2.33.49,4.35.28,5.45"/>
  <path class="cls-19" d="M510.95,875.73c.09.61.44,1.34,1.02,2.33.65,1.09,1.06,1.55,2.1,2.84,1.33,1.64,2.38,2.93,2.89,4.65.42,1.39.33,2.59.28,3.29-.1,1.55-.52,2.79-.85,3.58"/>
  <path class="cls-19" d="M508.52,877.44c.11.7.33,1.78.79,3.03.74,1.97,1.27,2.15,1.85,3.78.32.9.99,2.86.42,5.11-.38,1.47-1.14,2.5-1.63,3.06"/>
  <path class="cls-19" d="M506.62,879.33c.41.96,1.37,3.63.61,6.89-.53,2.23-1.64,3.78-2.31,4.58"/>
  <path class="cls-3" d="M660.4,911.08c7.17-37.25,39.46-63.11,78.8-63.11s70.79,25.67,78.59,62.1"/>
  <path class="cls-21" d="M672.42,910.84c6.17-32.06,32.89-51.66,66.76-51.66s60.38,19.94,67.09,51.3"/>
  <path class="cls-5" d="M827.35,907.67c-10.29-39.03-47.75-69.73-90.02-69.73s-79.72,30.36-88.88,71"/>
  <line class="cls-3" x1="737.5" y1="850.54" x2="737.5" y2="856.44"/>
  <line class="cls-3" x1="733.75" y1="853.49" x2="740.94" y2="853.49"/>
  <path class="cls-3" d="M745.14,877.65c-.59,0-1.15.09-1.68.26l-.13-.16c.04-.26.06-.52.06-.79,0-3.05-2.47-5.52-5.52-5.52s-5.52,2.47-5.52,5.52c0,.27.03.53.06.79l-.06.1c-.53-.17-1.09-.26-1.68-.26-3.05,0-5.52,2.47-5.52,5.52s2.47,5.52,5.52,5.52c.59,0,1.15-.09,1.68-.26l.1.19c-.04.26-.06.52-.06.79,0,3.05,2.47,5.52,5.52,5.52s5.52-2.47,5.52-5.52c0-.27-.03-.53-.06-.79l.1-.13c.53.17,1.09.26,1.68.26,3.05,0,5.52-2.47,5.52-5.52s-2.47-5.52-5.52-5.52Z"/>
  <path class="cls-13" d="M687.16,910.84c3.19-9.31,13.39-16.78,24.31-15.89s18.95,8.31,20.69,17.63h10.25c1.73-9.33,10.05-16.77,20.69-17.63s21.14,6.82,24.33,16.13"/>
  <polygon class="cls-4" points="743.51 917.85 731.08 917.85 737.3 924.9 743.51 917.85"/>
  <path class="cls-4" d="M648.75,910.84h48.43l-3.25,6.05v26.33l-2.95,5.83s.51,2.89-.2,5.08c-.93,2.86-3.51,4.74-3.51,4.74v54.11"/>
  <polyline class="cls-3" points="677.61 1010.89 677.61 960.06 674.54 955.3 673.6 955.3 670.53 960.06 670.53 1010.13"/>
  <line class="cls-4" x1="656.23" y1="949.05" x2="690.97" y2="949.05"/>
  <line class="cls-4" x1="653.28" y1="943.22" x2="693.92" y2="943.22"/>
  <path class="cls-5" d="M648.45,907.06l4.82,9.83v26.33l2.95,5.83s-.51,2.89.2,5.08c.93,2.86,3.51,4.74,3.51,4.74v6.72"/>
  <line class="cls-5" x1="659.93" y1="957.91" x2="659.85" y2="1010.89"/>
  <path class="cls-13" d="M698.86,967.22c2.41-20.08,19.5-35.65,40.23-35.65s37.48,15.26,40.15,35.05"/>
  <path class="cls-21" d="M725.05,1026.34v-64.24c1.67-4.49,6.42-9.42,14.12-9.42,8.6,0,12.92,5.28,14.12,9.42v65.88"/>
  <path class="cls-4" d="M716.4,1021.96v-62.25c2.7-7.29,10.34-15.28,22.77-15.28,13.86,0,20.84,8.57,22.77,15.28v63.73"/>
  <path class="cls-4" d="M698.47,1015.77v-35.78s-1.65-.86-2.11-3.1c-.28-1.33.04-3.53.04-3.53l-1.36-1.36v-4.97h8.42s6.11,0,6.11,0v4.97l-1.36,1.36s.32,2.2.04,3.53c-.47,2.24-2.11,3.1-2.11,3.1v37.35"/>
  <path class="cls-4" d="M771.74,1020.22v-40.22s-1.65-.86-2.11-3.1c-.28-1.33.04-3.53.04-3.53l-1.36-1.36v-4.97h8.42s6.11,0,6.11,0v4.97l-1.36,1.36s.32,2.2.04,3.53c-.47,2.24-2.11,3.1-2.11,3.1v37.35"/>
  <path class="cls-3" d="M706.78,966.99c.27-2.58,1.67-12.9,10.59-21.04,2.03-1.85,8.98-7.72,19.67-8.47,2-.14,15.15-.85,25.27,9.38,7.16,7.24,8.74,15.86,9.12,19.75"/>
  <line class="cls-4" x1="782.89" y1="943.22" x2="823.53" y2="943.22"/>
  <line class="cls-4" x1="785.05" y1="949.05" x2="819.79" y2="949.05"/>
  <polyline class="cls-3" points="806.5 1010.89 806.5 960.06 803.44 955.3 802.5 955.3 799.43 960.06 799.43 1011.58"/>
  <path class="cls-4" d="M827.55,910.84h-48.43l3.25,6.05v26.33l2.95,5.83s-.51,2.89.2,5.08c.93,2.86,3.51,4.74,3.51,4.74v54.8"/>
  <path class="cls-5" d="M828.31,907.06l-4.82,9.83v26.33l-2.95,5.83s.51,2.89-.2,5.08c-.93,2.86-3.51,4.74-3.51,4.74v6.72"/>
  <line class="cls-5" x1="816.83" y1="957.91" x2="817.05" y2="1010.89"/>
  <path class="cls-21" d="M563.83,942.43c3.88-20.15,21.6-35.37,42.88-35.37s38.48,14.78,42.7,34.48"/>
  <path class="cls-4" d="M576.78,944.03c2.69-13.96,15.16-24.71,29.91-24.71s26.93,11.05,29.85,24.71"/>
  <path class="cls-5" d="M542.24,943.22c5.12-29.9,31.17-52.66,62.53-52.66,17.52,0,33.38,7.1,44.86,18.58"/>
  <path class="cls-21" d="M615.33,959.85v45.58h-17.4v-45.58c1.03-2.78,3.95-5.84,8.7-5.84,5.3,0,7.96,3.27,8.7,5.84Z"/>
  <circle class="cls-3" cx="606.62" cy="936.65" r="9.42"/>
  <path class="cls-3" d="M610.85,933.47c-.34,0-.67.05-.97.15l-.08-.1c.02-.15.04-.3.04-.46,0-1.77-1.43-3.2-3.2-3.2s-3.2,1.43-3.2,3.2c0,.16.01.31.04.46l-.04.06c-.31-.1-.63-.15-.97-.15-1.77,0-3.2,1.43-3.2,3.2s1.43,3.2,3.2,3.2c.34,0,.67-.05.97-.15l.06.11c-.02.15-.04.3-.04.46,0,1.77,1.43,3.2,3.2,3.2s3.2-1.43,3.2-3.2c0-.16-.01-.31-.04-.46l.06-.08c.31.1.63.15.97.15,1.77,0,3.2-1.43,3.2-3.2s-1.43-3.2-3.2-3.2Z"/>
  <path class="cls-3" d="M568.23,944.29h12.41v8.48l-2.32,2.32s.58,3.46.07,6.02c-.73,3.66-3.61,5.95-3.61,5.95v48.71"/>
  <path class="cls-3" d="M643.13,944.29h-12.41v8.48l2.32,2.32s-.58,3.46-.07,6.02c.73,3.66,3.61,5.95,3.61,5.95v44.7"/>
  <path class="cls-21" d="M653.28,942.09h-10.89v8.85l2.42,2.42s-.57,3.92-.08,6.28c.83,3.99,3.77,5.52,3.77,5.52v44.95"/>
  <line class="cls-5" x1="542.24" y1="1015.77" x2="542.24" y2="942.7"/>
  <path class="cls-21" d="M913.11,942.43c-3.88-20.15-21.6-35.37-42.88-35.37s-38.48,14.78-42.7,34.48"/>
  <path class="cls-4" d="M900.17,944.03c-2.69-13.96-15.16-24.71-29.91-24.71s-26.93,11.05-29.85,24.71"/>
  <path class="cls-5" d="M933.11,936.3c-7.67-26.42-32.05-45.73-60.94-45.73-17.52,0-33.38,7.1-44.86,18.58"/>
  <path class="cls-21" d="M861.62,959.85v45.58h17.4v-45.58c-1.03-2.78-3.95-5.84-8.7-5.84-5.3,0-7.96,3.27-8.7,5.84Z"/>
  <circle class="cls-3" cx="870.32" cy="936.65" r="9.42"/>
  <path class="cls-3" d="M866.1,933.47c.34,0,.67.05.97.15l.08-.1c-.02-.15-.04-.3-.04-.46,0-1.77,1.43-3.2,3.2-3.2s3.2,1.43,3.2,3.2c0,.16-.01.31-.04.46l.04.06c.31-.1.63-.15.97-.15,1.77,0,3.2,1.43,3.2,3.2s-1.43,3.2-3.2,3.2c-.34,0-.67-.05-.97-.15l-.06.11c.02.15.04.3.04.46,0,1.77-1.43,3.2-3.2,3.2s-3.2-1.43-3.2-3.2c0-.16.01-.31.04-.46l-.06-.08c-.31.1-.63.15-.97.15-1.77,0-3.2-1.43-3.2-3.2s1.43-3.2,3.2-3.2Z"/>
  <path class="cls-3" d="M908.72,944.29h-12.41v8.48l2.32,2.32s-.58,3.46-.07,6.02c.73,3.66,3.61,5.95,3.61,5.95v47.32"/>
  <path class="cls-21" d="M929.51,942.09h-20.49v8.85l2.42,2.42s-.57,3.92-.08,6.28c.83,3.99,3.77,5.52,3.77,5.52l-.22,14.13"/>
  <path class="cls-21" d="M543.43,941.14h23.61v8.85l-2.42,2.42s.57,3.92.08,6.28c-.83,3.99-3.77,5.52-3.77,5.52v51.56"/>
  <path class="cls-3" d="M833.81,944.29h12.41v8.48l-2.32,2.32s.58,3.46.07,6.02c-.73,3.66-3.61,5.95-3.61,5.95v44.53"/>
  <path class="cls-21" d="M823.67,942.09h10.89v8.85l-2.42,2.42s.57,3.92.08,6.28c-.83,3.99-3.77,5.52-3.77,5.52v46.41"/>
  <path class="cls-5" d="M551.12,772.46c4.21-27.96,28.33-49.39,57.46-49.39s51.97,19.37,56.94,46.43"/>
  <path class="cls-4" d="M581.1,895.4v-127c3.41-10.86,13.08-22.79,28.8-22.79,17.53,0,26.35,12.77,28.8,22.79v130.94"/>
  <path class="cls-4" d="M567.13,771.96c3.58-19.89,21.84-36.87,42.77-36.87s38.32,15.09,41.9,34.98"/>
  <line class="cls-4" x1="568.45" y1="778.99" x2="568.45" y2="900.25"/>
  <polygon class="cls-4" points="572.35 778.99 543.86 778.99 543.86 772.22 572.35 772.46 572.35 778.99"/>
  <path class="cls-5" d="M547.8,778.99s-.38,2.6.68,5.11,4.29,4.39,4.29,4.39c.08,40.86.03,87.54.11,128.4"/>
  <path class="cls-21" d="M618.6,802.8v53.72h-17.4v-53.72c1.03-3.28,3.95-6.89,8.7-6.89,5.3,0,7.96,3.86,8.7,6.89Z"/>
  <path class="cls-3" d="M624.65,796.97v64.39h-29.51v-64.39c1.75-3.93,6.7-8.25,14.75-8.25,8.98,0,13.5,4.63,14.75,8.25Z"/>
  <path class="cls-3" d="M616.7,760.08c-.59,0-1.15.09-1.68.26l-.13-.16c.04-.26.06-.52.06-.79,0-3.05-2.47-5.52-5.52-5.52s-5.52,2.47-5.52,5.52c0,.27.03.53.06.79l-.06.1c-.53-.17-1.09-.26-1.68-.26-3.05,0-5.52,2.47-5.52,5.52s2.47,5.52,5.52,5.52c.59,0,1.15-.09,1.68-.26l.1.19c-.04.26-.06.52-.06.79,0,3.05,2.47,5.52,5.52,5.52s5.52-2.47,5.52-5.52c0-.27-.03-.53-.06-.79l.1-.13c.53.17,1.09.26,1.68.26,3.05,0,5.52-2.47,5.52-5.52s-2.47-5.52-5.52-5.52Z"/>
  <polyline class="cls-4" points="687.63 769.63 650.67 769.4 650.67 776.16 687.63 776.16"/>
  <path class="cls-5" d="M662.66,759.92c2.64-17.53,11.44-33.04,24.12-44.26"/>
  <path class="cls-21" d="M661.1,848.62v-64.75s-2.52-.94-3.25-3.01c-.62-1.74-.35-4.23-.35-4.23"/>
  <line class="cls-4" x1="684.65" y1="847.97" x2="650.67" y2="847.97"/>
  <path class="cls-21" d="M651.46,848.44l2.95,5.83s-.51,2.89.2,5.08c.93,2.86,3.51,4.74,3.51,4.74v17.26"/>
  <line class="cls-3" x1="654.41" y1="854.11" x2="683.47" y2="854.11"/>
  <path class="cls-5" d="M920.42,772.46c-4.21-27.96-28.33-49.39-57.46-49.39s-51.97,19.37-56.94,46.43"/>
  <path class="cls-4" d="M890.44,892.53v-124.13c-3.41-10.86-13.08-22.79-28.8-22.79-17.53,0-26.35,12.77-28.8,22.79v136.84"/>
  <line class="cls-4" x1="890.44" y1="893.96" x2="890.44" y2="892.53"/>
  <path class="cls-4" d="M904.42,771.96c-3.58-19.89-21.84-36.87-42.77-36.87s-38.32,15.09-41.9,34.98"/>
  <line class="cls-4" x1="903.09" y1="778.99" x2="903.09" y2="900.25"/>
  <polygon class="cls-4" points="899.19 778.99 927.68 778.99 927.68 772.22 899.19 772.46 899.19 778.99"/>
  <path class="cls-5" d="M923.75,778.99s.38,2.6-.68,5.11-4.29,4.39-4.29,4.39c-.08,40.86-.03,81.49-.11,122.35"/>
  <path class="cls-21" d="M852.95,802.8v53.72h17.4v-53.72c-1.03-3.28-3.95-6.89-8.7-6.89-5.3,0-7.96,3.86-8.7,6.89Z"/>
  <path class="cls-3" d="M846.89,796.97v64.39h29.51v-64.39c-1.75-3.93-6.7-8.25-14.75-8.25-8.98,0-13.5,4.63-14.75,8.25Z"/>
  <path class="cls-3" d="M854.85,760.08c.59,0,1.15.09,1.68.26l.13-.16c-.04-.26-.06-.52-.06-.79,0-3.05,2.47-5.52,5.52-5.52s5.52,2.47,5.52,5.52c0,.27-.03.53-.06.79l.06.1c.53-.17,1.09-.26,1.68-.26,3.05,0,5.52,2.47,5.52,5.52s-2.47,5.52-5.52,5.52c-.59,0-1.15-.09-1.68-.26l-.1.19c.04.26.06.52.06.79,0,3.05-2.47,5.52-5.52,5.52s-5.52-2.47-5.52-5.52c0-.27.03-.53.06-.79l-.1-.13c-.53.17-1.09.26-1.68.26-3.05,0-5.52-2.47-5.52-5.52s2.47-5.52,5.52-5.52Z"/>
  <polyline class="cls-4" points="783.92 769.63 820.88 769.4 820.88 776.16 783.92 776.16"/>
  <path class="cls-5" d="M808.89,759.92c-2.64-17.53-12.35-34.16-25.03-45.38"/>
  <path class="cls-21" d="M810.44,848.62v-64.75s2.52-.94,3.25-3.01c.62-1.74.35-4.23.35-4.23"/>
  <line class="cls-4" x1="786.9" y1="847.97" x2="820.88" y2="847.97"/>
  <path class="cls-21" d="M820.09,848.44l-2.95,5.83s.51,2.89-.2,5.08c-.93,2.86-3.51,4.74-3.51,4.74v14.31"/>
  <line class="cls-3" x1="817.14" y1="854.11" x2="788.08" y2="854.11"/>
  <path class="cls-3" d="M746.88,654.17v-16.11c.02-.12.12-.53.5-.84.36-.29.75-.31.89-.31.73-.02,1.21.5,1.28.58.51.57.45,1.26.43,1.36l-.1,15.44-3-.12Z"/>
  <path class="cls-3" d="M738.7,638.13v15.5h-5.92v-15.5c.35-.95,1.34-1.99,2.96-1.99,1.8,0,2.71,1.11,2.96,1.99Z"/>
  <line class="cls-4" x1="716.93" y1="659.23" x2="754.61" y2="658.93"/>
  <line class="cls-3" x1="716.93" y1="628.97" x2="754.61" y2="628.97"/>
  <path class="cls-4" d="M718.14,633.82c1.18-1.39,2.94-2.27,4.91-2.27,3.17,0,5.81,2.29,6.35,5.3h.04c.54-3.01,3.18-5.3,6.35-5.3s5.81,2.29,6.35,5.3h.16c.54-3.01,3.18-5.3,6.35-5.3,1.88,0,3.57.8,4.75,2.09"/>
  <path class="cls-5" d="M736.48,559.66h-.84c-1.25,2.89-2.48,4.88-3.67,6.27-1.29,1.5-3.97,3.67-5.84,5.21-2.57,2.12-3.59,2.67-6.05,4.54-1.39,1.06-5.79,4.48-8.4,8.32-1.42,2.1-2.71,4.72-2.95,9.84-.07,1.55-.41,5.86,2.42,9.99,1.52,2.21,3.1,2.92,4.41,3.74h22.45"/>
  <path class="cls-5" d="M735.35,559.66h.67c1.25,2.89,2.65,4.88,3.84,6.27,1.29,1.5,3.97,3.67,5.84,5.21,2.57,2.12,3.59,2.67,6.05,4.54,1.39,1.06,5.79,4.48,8.4,8.32,1.42,2.1,2.71,4.72,2.95,9.84.07,1.55.41,5.86-2.42,9.99-1.52,2.21-3.1,2.92-4.41,3.74h-22.45"/>
  <polyline class="cls-5" points="687.63 750.32 687.63 722.62 687.63 689.5 693.68 691.19 717.14 659.23 717.14 619.58 754.82 619.58 754.82 658.93 778.58 691.92 783.39 689.5 783.39 726.31 783.39 750.32 783.39 811.72 787.76 812.63 787.76 853.71"/>
  <path class="cls-3" d="M724.94,654.22v-16.11c-.02-.12-.12-.53-.5-.84-.36-.29-.75-.31-.89-.31-.73-.02-1.21.5-1.28.58-.51.57-.45,1.26-.43,1.36l.1,15.44,3-.12Z"/>
  <path class="cls-21" d="M715.19,608.3s1.11,2.21,1.42,4.6c.31,2.35-.42,4.86-.42,4.86"/>
  <path class="cls-21" d="M756.78,608.28s-1.11,2.21-1.42,4.6.42,4.86.42,4.86"/>
  <path class="cls-21" d="M721.23,704.06c1.34-7.46,7.87-13.12,15.72-13.12s14.37,5.66,15.72,13.12"/>
  <circle class="cls-4" cx="736.95" cy="707.27" r="10.44"/>
  <polyline class="cls-4" points="722.54 703.95 696.64 703.91 687.63 689.5"/>
  <polyline class="cls-4" points="751.34 704.06 775.4 704.06 783.39 689.5"/>
  <path class="cls-21" d="M747.12,767.32v58.9h-22.49v-58.9c1.33-3.6,5.11-7.55,11.25-7.55,6.85,0,10.29,4.23,11.25,7.55Z"/>
  <path class="cls-21" d="M688.24,765.58c.08-5.6,4.15-10.52,9.88-11.47,5.72-.95,11.17,2.39,13.05,7.67l7.01-.16c1.53-8.52,8.99-14.99,17.96-14.99s16.42,6.47,17.96,14.99l5.74.16c1.88-5.28,7.32-8.62,13.05-7.67,5.72.95,9.8,5.87,9.88,11.47"/>
  <path class="cls-4" d="M707.42,827.08v-59.06c-.08-.43-.42-1.94-1.82-3.06-1.32-1.07-2.75-1.12-3.27-1.14-2.68-.06-4.43,1.82-4.69,2.12-1.88,2.09-1.63,4.61-1.59,4.99l.38,56.6,10.99-.45Z"/>
  <path class="cls-4" d="M765.1,827.08v-59.06c.08-.43.42-1.94,1.82-3.06,1.32-1.07,2.75-1.12,3.27-1.14,2.68-.06,4.43,1.82,4.69,2.12,1.88,2.09,1.63,4.61,1.59,4.99l-.38,56.6-10.99-.45Z"/>
  <polyline class="cls-5" points="687.63 746.63 687.63 811.72 683.47 812.63 683.47 853.71"/>
  <polyline class="cls-4" points="724.63 810.02 730.43 810.02 747.12 810.02"/>
  <line class="cls-4" x1="730.43" y1="826.22" x2="730.43" y2="810.02"/>
  <line class="cls-4" x1="736.47" y1="810.02" x2="736.47" y2="826.22"/>
  <line class="cls-4" x1="742.26" y1="810.02" x2="742.26" y2="826.22"/>
  <polyline class="cls-4" points="688.24 730.13 715.32 727.98 735.87 727.98"/>
  <polyline class="cls-4" points="783.13 730.13 756.04 727.98 735.5 727.98"/>
  <path class="cls-3" d="M711.74,585c1.03,3.59,2.68,8.04,5.37,12.79,1.94,3.42,4.01,6.26,5.9,8.55"/>
  <path class="cls-3" d="M717.6,579.69c1.62,4.56,4.1,10.17,7.96,16.09,2.78,4.27,5.67,7.77,8.31,10.57"/>
  <path class="cls-3" d="M723.33,574.69c2.25,5.51,5.62,12.27,10.71,19.33,3.66,5.09,7.42,9.23,10.82,12.52"/>
  <path class="cls-3" d="M729.17,568.99c2.91,6.43,7.19,14.28,13.51,22.42,4.56,5.87,9.19,10.61,13.35,14.36"/>
  <path class="cls-3" d="M736.86,564.66c2.91,6.43,7.19,14.28,13.51,22.42,4.56,5.87,9.19,10.61,13.35,14.36"/>
  <path class="cls-3" d="M760.08,584.72c-1.03,3.59-2.68,8.04-5.37,12.79-1.94,3.42-4.01,6.26-5.9,8.55"/>
  <path class="cls-3" d="M754.22,579.41c-1.62,4.56-4.1,10.17-7.96,16.09-2.78,4.27-5.67,7.77-8.31,10.57"/>
  <path class="cls-3" d="M748.49,574.41c-2.25,5.51-5.62,12.27-10.71,19.33-3.66,5.09-7.42,9.23-10.82,12.52"/>
  <path class="cls-3" d="M742.65,568.72c-2.91,6.43-7.19,14.28-13.51,22.42-4.56,5.87-9.19,10.61-13.35,14.36"/>
  <path class="cls-3" d="M734.96,564.39c-2.91,6.43-7.19,14.28-13.51,22.42-4.56,5.87-9.19,10.61-13.35,14.36"/>
  <path class="cls-4" d="M590.12,682.65v-32.22c-.04-.24-.23-1.06-.99-1.67-.72-.58-1.5-.61-1.79-.62-1.46-.03-2.42,1-2.56,1.16-1.02,1.14-.89,2.52-.87,2.72l.21,30.88,6-.25Z"/>
  <path class="cls-4" d="M632.91,682.65v-32.22c.04-.24.23-1.06.99-1.67.72-.58,1.5-.61,1.79-.62,1.46-.03,2.42,1,2.56,1.16,1.02,1.14.89,2.52.87,2.72l-.21,30.88-6-.25Z"/>
  <path class="cls-4" d="M575.6,637.26c2.34-2.75,5.83-4.49,9.73-4.49,6.28,0,11.5,4.53,12.58,10.5h.08c1.08-5.97,6.3-10.5,12.58-10.5s11.5,4.53,12.58,10.5h.31c1.08-5.97,6.3-10.5,12.58-10.5,3.72,0,7.07,1.59,9.41,4.13"/>
  <path class="cls-4" d="M617.42,650.46l.03,31.01h-11.84s-.03-31-.03-31c.7-1.89,2.69-3.98,5.92-3.98,3.6,0,5.42,2.22,5.92,3.97Z"/>
  <path class="cls-21" d="M622.9,521.47c-1.84-2.87-3.08-3.65-5.15-6.05-1.29-1.5-2.97-3.73-4.6-6.82l-.41-.95-2.89-.02-.47.97c-1.63,3.09-3.32,5.32-4.6,6.82-2.07,2.41-3.31,3.18-5.15,6.05-1.66,2.59-2.41,4.71-2.27,6.96.05.76.19,1.39.3,1.82h27.21c.12-.43.26-1.05.3-1.82.14-2.25-.61-4.37-2.27-6.96Z"/>
  <path class="cls-13" d="M561.95,746.44c0-7.75-.15-23.97-.15-31.71l98.44-.19v39.75"/>
  <polyline class="cls-4" points="576.97 691.71 596.41 690.16 611.16 690.16"/>
  <polyline class="cls-4" points="645.08 691.71 625.64 690.16 610.89 690.16"/>
  <path class="cls-4" d="M622.37,706.91h-.13c-.95-5.26-5.54-9.24-11.07-9.24s-10.12,3.99-11.07,9.24h-.36s-.7,0-.7,0h-.13c-.95-5.26-5.54-9.24-11.07-9.24s-10.12,3.99-11.07,9.24v6.53"/>
  <path class="cls-4" d="M622.37,706.91h.36c.95-5.26,5.54-9.24,11.07-9.24s10.12,3.99,11.07,9.24v6.11"/>
  <path class="cls-3" d="M638.92,704.52c-1.33-1.25-3.12-2.02-5.09-2.02-3.66,0-6.7,2.64-7.32,6.11"/>
  <path class="cls-3" d="M582.77,704.52c1.33-1.25,3.12-2.02,5.09-2.02,3.66,0,6.7,2.64,7.32,6.11"/>
  <path class="cls-3" d="M619.34,708.95c-.69-3.86-4.07-6.78-8.13-6.78s-7.43,2.93-8.13,6.78"/>
  <line class="cls-4" x1="647.75" y1="628.97" x2="576.63" y2="628.97"/>
  <path class="cls-4" d="M735.78,465.38h.03c2.92,2.87,5.65,4.94,7.42,6.37,1.78,1.42,4.22,3.27,5.15,5.37,1.06,2.39.41,4.97.12,6.54,0,0,3.44,2.27,5.08,4.6,1.8,2.55,2.23,5.98,2.23,5.98l10.39,1.15s.38-1.88,1.4-3.1c1.51-1.82,5.14-3.06,5.14-3.06h.15s3.62,1.25,5.14,3.07c1.02,1.22,1.4,3.1,1.4,3.1l10.78.93s-.48-1.85-.59-2.73c-.15-1.22-.08-2.74.3-3.55.34-.73,1.11-1.54,2.35-2.06.8-.34,3.49-.47,3.49-.47-.19-.48-.64-1.8-.22-3.39.38-1.43,1.24-2.27,1.66-2.67,1.56-1.48,3.42-1.74,4.11-1.8h.07c.69.06,2.56.32,4.11,1.8.42.4,1.28,1.24,1.66,2.67"/>
  <path class="cls-4" d="M735.78,465.38h-.03c-2.92,2.87-5.65,4.94-7.42,6.37-1.78,1.42-4.22,3.27-5.15,5.37-1.06,2.39-.41,4.97-.12,6.54,0,0-3.44,2.27-5.08,4.6-1.8,2.55-2.23,5.98-2.23,5.98l-10.39,1.15s-.38-1.88-1.4-3.1c-1.51-1.82-5.14-3.06-5.14-3.06h-.15s-3.62,1.25-5.14,3.07c-1.02,1.22-1.4,3.1-1.4,3.1l-10.78.93s.48-1.85.59-2.73c.15-1.22.08-2.74-.3-3.55-.34-.73-1.11-1.54-2.35-2.06-.8-.34-3.49-.47-3.49-.47.19-.48.64-1.8.22-3.39-.38-1.43-1.24-2.27-1.66-2.67-1.56-1.48-3.42-1.74-4.11-1.8h-.07c-.69.06-2.56.32-4.11,1.8-.42.4-1.28,1.24-1.66,2.67"/>
  <path class="cls-4" d="M840.91,582.4c2.58.01,5.29.71,5.29.71,0,0,.31-1,.59-1.37.39-.52,1.13-1.31,2.45-1.36,1.16-.05,2.54.26,2.54.26-.25-.93-.52-2.61.11-4.43.63-1.81,1.88-2.95,2.38-3.41.8-.73,1.25-.88,2.61-2.04.74-.64,1.32-1.2,1.7-1.59h.03c.38.39.96.95,1.7,1.59,1.36,1.17,1.81,1.31,2.61,2.04.5.46,1.75,1.6,2.38,3.41.64,1.82.36,3.49.11,4.43,0,0,1.38-.31,2.54-.26,1.32.06,2.06.84,2.45,1.36.28.37.59,1.37.59,1.37,0,0,2.72-.7,5.29-.71"/>
  <path class="cls-4" d="M814.07,580.38c1.16-.05,2.54.26,2.54.26-.25-.93-.52-2.61.11-4.43.63-1.81,1.88-2.95,2.38-3.41.8-.73,1.25-.88,2.61-2.04.74-.64,1.32-1.2,1.7-1.59h.03c.38.39.96.95,1.7,1.59,1.36,1.17,1.81,1.31,2.61,2.04.5.46,1.75,1.6,2.38,3.41.64,1.82.36,3.49.11,4.43,0,0,1.38-.31,2.54-.26,1.32.06,2.06.84,2.45,1.36.28.37.59,1.37.59,1.37,0,0,2.72-.7,5.29-.71"/>
  <path class="cls-4" d="M876.09,582.4c2.58.01,5.29.71,5.29.71,0,0,.31-1,.59-1.37.39-.52,1.13-1.31,2.45-1.36,1.16-.05,2.54.26,2.54.26-.25-.93-.52-2.61.11-4.43.63-1.81,1.88-2.95,2.38-3.41.8-.73,1.25-.88,2.61-2.04.74-.64,1.32-1.2,1.7-1.59h.03c.38.39.96.95,1.7,1.59,1.36,1.17,1.81,1.31,2.61,2.04.5.46,1.75,1.6,2.38,3.41.64,1.82.36,3.49.11,4.43,0,0,1.38-.31,2.54-.26"/>
  <path class="cls-4" d="M593.34,582.4c2.58.01,5.29.71,5.29.71,0,0,.31-1,.59-1.37.39-.52,1.13-1.31,2.45-1.36,1.16-.05,2.54.26,2.54.26-.25-.93-.52-2.61.11-4.43.63-1.81,1.88-2.95,2.38-3.41.8-.73,1.25-.88,2.61-2.04.74-.64,1.32-1.2,1.7-1.59h.03c.38.39.96.95,1.7,1.59,1.36,1.17,1.81,1.31,2.61,2.04.5.46,1.75,1.6,2.38,3.41.64,1.82.36,3.49.11,4.43,0,0,1.38-.31,2.54-.26,1.32.06,2.06.84,2.45,1.36.28.37.59,1.37.59,1.37,0,0,2.72-.7,5.29-.71"/>
  <path class="cls-4" d="M566.5,580.38c1.16-.05,2.54.26,2.54.26-.25-.93-.52-2.61.11-4.43.63-1.81,1.88-2.95,2.38-3.41.8-.73,1.25-.88,2.61-2.04.74-.64,1.32-1.2,1.7-1.59h.03c.38.39.96.95,1.7,1.59,1.36,1.17,1.81,1.31,2.61,2.04.5.46,1.75,1.6,2.38,3.41.64,1.82.36,3.49.11,4.43,0,0,1.38-.31,2.54-.26,1.32.06,2.06.84,2.45,1.36.28.37.59,1.37.59,1.37,0,0,2.72-.7,5.29-.71"/>
  <path class="cls-4" d="M628.52,582.4c2.58.01,5.29.71,5.29.71,0,0,.31-1,.59-1.37.39-.52,1.13-1.31,2.45-1.36,1.16-.05,2.54.26,2.54.26-.25-.93-.52-2.61.11-4.43.63-1.81,1.88-2.95,2.38-3.41.8-.73,1.25-.88,2.61-2.04.74-.64,1.32-1.2,1.7-1.59h.03c.38.39.96.95,1.7,1.59,1.36,1.17,1.81,1.31,2.61,2.04.5.46,1.75,1.6,2.38,3.41.64,1.82.36,3.49.11,4.43,0,0,1.38-.31,2.54-.26"/>
  <path class="cls-4" d="M880.01,682.65v-32.22c.04-.24.23-1.06.99-1.67.72-.58,1.5-.61,1.79-.62,1.46-.03,2.42,1,2.56,1.16,1.02,1.14.89,2.52.87,2.72l-.21,30.88-6-.25Z"/>
  <path class="cls-4" d="M837.22,682.65v-32.22c-.04-.24-.23-1.06-.99-1.67-.72-.58-1.5-.61-1.79-.62-1.46-.03-2.42,1-2.56,1.16-1.02,1.14-.89,2.52-.87,2.72l.21,30.88,6-.25Z"/>
  <path class="cls-4" d="M894.53,637.26c-2.34-2.75-5.83-4.49-9.73-4.49-6.28,0-11.5,4.53-12.58,10.5h-.08c-1.08-5.97-6.3-10.5-12.58-10.5s-11.5,4.53-12.58,10.5h-.31c-1.08-5.97-6.3-10.5-12.58-10.5-3.72,0-7.07,1.59-9.41,4.13"/>
  <line class="cls-4" x1="894.27" y1="629.14" x2="823.16" y2="629.14"/>
  <path class="cls-4" d="M852.71,650.46l-.03,31.01h11.84s.03-31,.03-31c-.7-1.89-2.69-3.98-5.92-3.98-3.6,0-5.42,2.22-5.92,3.97Z"/>
  <polyline class="cls-4" points="824.56 692.34 844 690.79 858.75 690.79"/>
  <polyline class="cls-4" points="892.67 692.34 873.23 690.79 858.48 690.79"/>
  <path class="cls-4" d="M870.17,707.12h-.13c-.95-5.26-5.54-9.24-11.07-9.24s-10.12,3.99-11.07,9.24h-.36s-.7,0-.7,0h-.13c-.95-5.26-5.54-9.24-11.07-9.24s-10.12,3.99-11.07,9.24v6.53"/>
  <path class="cls-4" d="M870.17,707.12h.36c.95-5.26,5.54-9.24,11.07-9.24s10.12,3.99,11.07,9.24v6.11"/>
  <path class="cls-3" d="M886.71,704.73c-1.33-1.25-3.12-2.02-5.09-2.02-3.66,0-6.7,2.64-7.32,6.11"/>
  <path class="cls-3" d="M830.56,704.73c1.33-1.25,3.12-2.02,5.09-2.02,3.66,0,6.7,2.64,7.32,6.11"/>
  <path class="cls-3" d="M867.13,709.16c-.69-3.86-4.07-6.78-8.13-6.78s-7.43,2.93-8.13,6.78"/>
  <path class="cls-13" d="M907.9,744.33v-29.6l-98.01-.19v39.75"/>
  <path class="cls-21" d="M870.71,521.47c-1.84-2.87-3.08-3.65-5.15-6.05-1.29-1.5-2.97-3.73-4.6-6.82l-.41-.95-2.89-.02-.47.97c-1.63,3.09-3.32,5.32-4.6,6.82-2.07,2.41-3.31,3.18-5.15,6.05-1.66,2.59-2.41,4.71-2.27,6.96.05.76.19,1.39.3,1.82h27.21c.12-.43.26-1.05.3-1.82.14-2.25-.61-4.37-2.27-6.96Z"/>
  <path class="cls-21" d="M748.13,404.65c-1.84-2.87-3.08-3.65-5.15-6.05-1.29-1.5-2.97-3.73-4.6-6.82l-.54-1.05h-2.69l-.54,1.05c-1.63,3.09-3.32,5.32-4.6,6.82-2.07,2.41-3.31,3.18-5.15,6.05-1.66,2.59-2.41,4.71-2.27,6.96.05.76.19,1.39.3,1.82h27.21c.12-.43.26-1.05.3-1.82.14-2.25-.61-4.37-2.27-6.96Z"/>
  <path class="cls-5" d="M744.04,528.71h59.56c2.41-4.25,6.88-12.62,7.73-23.2,1.12-13.94-3.45-24.33-5.42-28.66-4.75-10.45-11.24-16.85-15.61-21.09-6.74-6.53-14.61-11.81-19.11-14.83-5.59-3.75-8.94-5.52-13.7-9.88-4.49-4.12-7.62-8.12-9.56-10.87h-24.29c-1.94,2.75-5.06,6.76-9.56,10.87-4.76,4.36-8.11,6.13-13.7,9.88-4.5,3.02-12.37,8.3-19.11,14.83-4.37,4.23-10.86,10.64-15.61,21.09-1.97,4.33-6.54,14.72-5.42,28.66.85,10.58,5.28,18.95,7.69,23.2l58.58-.18,17.53.18Z"/>
  <path class="cls-14" d="M668.93,528.56s1.8,7.48,1.8,11.31c0,2.44-1.08,7.49-1.08,7.49"/>
  <polyline class="cls-14" points="669.7 681.06 669.7 549.4 670.07 549.4 723.93 549.4 747.84 549.4 802.05 549.4 802.05 681.06"/>
  <path class="cls-14" d="M802.79,528.53s-1.8,7.48-1.8,11.31c0,2.44,1.08,7.49,1.08,7.49"/>
  <polyline class="cls-4" points="687.19 689.14 646.22 689.14 646.22 680.97 699.34 680.97"/>
  <polyline class="cls-4" points="783.73 689.14 823.31 689.14 823.31 680.97 771.6 680.97"/>
  <path class="cls-3" d="M790.72,599.66v43.96h-5.92v-43.96c0-3.08,1.34-4.02,2.96-4.02,1.8,0,2.74.91,2.96,4.02Z"/>
  <line class="cls-3" x1="778.59" y1="583.65" x2="778.59" y2="654.01"/>
  <line class="cls-21" x1="760.08" y1="653.45" x2="801.62" y2="653.45"/>
  <path class="cls-4" d="M762.77,661.33c1.87-1.49,4.24-2.38,6.81-2.38,5.38,0,9.86,3.88,10.78,9h.21c.92-5.12,5.4-9,10.78-9s9.86,3.88,10.78,9"/>
  <path class="cls-3" d="M680.51,599.66v43.96h5.92v-43.96c0-3.08-1.34-4.02-2.96-4.02-1.8,0-2.74.91-2.96,4.02Z"/>
  <path class="cls-3" d="M703.19,596.05c-.77.52-1.21,1.61-1.35,3.61v43.96h5.92v-34.04"/>
  <path class="cls-3" d="M769.3,596.15c.77.52,1.21,1.61,1.35,3.61v43.96h-5.92v-34.04"/>
  <line class="cls-3" x1="692.64" y1="583.65" x2="692.64" y2="654.01"/>
  <line class="cls-21" x1="711.14" y1="653.45" x2="669.6" y2="653.45"/>
  <path class="cls-4" d="M708.89,661.7c-1.93-1.71-4.47-2.74-7.25-2.74-5.38,0-9.86,3.88-10.78,9h-.21c-.92-5.12-5.4-9-10.78-9s-9.86,3.88-10.78,9"/>
  <path class="cls-15" d="M735.88,515.3c-.85,0-1.54.72-1.54,1.6s.69,1.6,1.54,1.6,1.54-.72,1.54-1.6-.69-1.6-1.54-1.6Z"/>
  <path class="cls-15" d="M735.44,508.36h.88c0-.26.04-.57.24-.72.24-.18.64-.21.64-.21,0,0,0-.47-.22-.64-.18-.14-.5-.08-.5-.08,0,0,0-.31,0-.52.02-.47-.3-.77-.52-.92l-.1-.06c-.06.04-.1.07-.1.07-.21.15-.51.46-.5.92,0,.21,0,.52,0,.52,0,0-.32-.06-.5.08-.22.17-.22.64-.22.64,0,0,.4.02.64.21.2.15.24.46.24.72Z"/>
  <path class="cls-15" d="M727.86,515.52s-.45,0-.62.23c-.14.19-.07.51-.07.51,0,0-.3,0-.5,0-.45-.02-.74.31-.89.54l-.06.1c.04.06.07.1.07.1.15.22.44.53.88.52.2,0,.5,0,.5,0,0,0-.06.33.07.51.17.23.62.23.62.23,0,0,.02-.42.2-.66.15-.21.44-.25.69-.25v-.91c-.25,0-.54-.05-.69-.25-.18-.25-.2-.66-.2-.66Z"/>
  <path class="cls-15" d="M733.34,529.52c.02-.31.27-.63.27-.63,0,0-.34-.31-.61-.25-.22.05-.38.34-.38.34,0,0-.23-.2-.38-.34-.33-.32-.75-.27-1.01-.2l-.11.03c-.01.07-.02.12-.02.12-.03.27,0,.7.34.99.15.13.38.34.38.34,0,0-.25.2-.27.44-.02.29.32.59.32.59,0,0,.28-.3.57-.36.24-.06.49.11.68.28l.25-.3.07-.09.25-.3c-.19-.17-.38-.41-.36-.66Z"/>
  <path class="cls-15" d="M739.93,534.92s.25-.2.27-.44c.02-.29-.32-.59-.32-.59,0,0-.28.3-.57.36-.24.06-.49-.11-.68-.28l-.25.3-.07.09-.25.3c.19.17.38.41.36.66-.02.31-.27.63-.27.63,0,0,.34.31.61.25.22-.05.38-.34.38-.34,0,0,.23.2.38.34.33.32.75.27,1.01.2l.11-.03c.01-.07.02-.12.02-.12.03-.27,0-.7-.34-.99-.15-.13-.38-.34-.38-.34Z"/>
  <path class="cls-15" d="M739.95,511.04c-.2,0-.5,0-.5,0,0,0,.06-.33-.07-.51-.17-.23-.62-.23-.62-.23,0,0-.02.42-.2.66-.15.21-.44.25-.69.25h-3.95c-.25,0-.54-.05-.69-.25-.18-.25-.2-.66-.2-.66,0,0-.45,0-.62.23-.14.19-.07.51-.07.51,0,0-.3,0-.5,0-.45-.02-.74.31-.89.54l-.06.1c.04.06.07.1.07.1.15.22.44.53.88.52.2,0,.5,0,.5,0,0,0-.06.33.07.51.17.23.62.23.62.23,0,0,.02-.42.2-.66.15-.21.44-.25.69-.25h3.95c.25,0,.54.05.69.25.18.25.2.66.2.66,0,0,.45,0,.62-.23.14-.19.07-.51.07-.51,0,0,.3,0,.5,0,.45.02.74-.3.88-.52,0,0,.03-.04.07-.1l-.06-.1c-.15-.23-.44-.56-.89-.54Z"/>
  <path class="cls-15" d="M745.85,516.8c-.15-.23-.44-.56-.89-.54-.2,0-.5,0-.5,0,0,0,.06-.33-.07-.51-.17-.23-.62-.23-.62-.23,0,0-.02.42-.2.66-.15.21-.44.25-.69.25v.91c.25,0,.54.05.69.25.18.25.2.66.2.66,0,0,.45,0,.62-.23.14-.19.07-.51.07-.51,0,0,.3,0,.5,0,.45.02.74-.3.88-.52,0,0,.03-.04.07-.1l-.06-.1Z"/>
  <polyline class="cls-12" points="728.75 516.44 742.88 516.44 742.88 517.35 728.75 517.35"/>
  <polyline class="cls-12" points="733.13 530.88 738.04 534.65 738.62 533.97 733.71 530.19"/>
  <polyline class="cls-12" points="735.44 508.37 736.32 508.37 736.22 540.06 735.33 540.06 735.43 508.19"/>
  <path class="cls-8" d="M735.74,515.3c-.85,0-1.54.72-1.54,1.6s.69,1.6,1.54,1.6,1.54-.72,1.54-1.6-.69-1.6-1.54-1.6Z"/>
  <path class="cls-8" d="M735.3,508.36h.88c0-.26.04-.57.24-.72.24-.18.64-.21.64-.21,0,0,0-.47-.22-.64-.18-.14-.5-.08-.5-.08,0,0,0-.31,0-.52.02-.47-.3-.77-.52-.92l-.1-.06c-.06.04-.1.07-.1.07-.21.15-.51.46-.5.92,0,.21,0,.52,0,.52,0,0-.32-.06-.5.08-.22.17-.22.64-.22.64,0,0,.4.02.64.21.2.15.24.46.24.72Z"/>
  <path class="cls-8" d="M727.72,515.52s-.45,0-.62.23c-.14.19-.07.51-.07.51,0,0-.3,0-.5,0-.45-.02-.74.31-.89.54l-.06.1c.04.06.07.1.07.1.15.22.44.53.88.52.2,0,.5,0,.5,0,0,0-.06.33.07.51.17.23.62.23.62.23,0,0,.02-.42.2-.66.15-.21.44-.25.69-.25v-.91c-.25,0-.54-.05-.69-.25-.18-.25-.2-.66-.2-.66Z"/>
  <path class="cls-8" d="M733.21,529.52c.02-.31.27-.63.27-.63,0,0-.34-.31-.61-.25-.22.05-.38.34-.38.34,0,0-.23-.2-.38-.34-.33-.32-.75-.27-1.01-.2l-.11.03c-.01.07-.02.12-.02.12-.03.27,0,.7.34.99.15.13.38.34.38.34,0,0-.25.2-.27.44-.02.29.32.59.32.59,0,0,.28-.3.57-.36.24-.06.49.11.68.28l.25-.3.07-.09.25-.3c-.19-.17-.38-.41-.36-.66Z"/>
  <path class="cls-8" d="M739.79,534.92s.25-.2.27-.44c.02-.29-.32-.59-.32-.59,0,0-.28.3-.57.36-.24.06-.49-.11-.68-.28l-.25.3-.07.09-.25.3c.19.17.38.41.36.66-.02.31-.27.63-.27.63,0,0,.34.31.61.25.22-.05.38-.34.38-.34,0,0,.23.2.38.34.33.32.75.27,1.01.2l.11-.03c.01-.07.02-.12.02-.12.03-.27,0-.7-.34-.99-.15-.13-.38-.34-.38-.34Z"/>
  <path class="cls-8" d="M739.82,511.04c-.2,0-.5,0-.5,0,0,0,.06-.33-.07-.51-.17-.23-.62-.23-.62-.23,0,0-.02.42-.2.66-.15.21-.44.25-.69.25h-3.95c-.25,0-.54-.05-.69-.25-.18-.25-.2-.66-.2-.66,0,0-.45,0-.62.23-.14.19-.07.51-.07.51,0,0-.3,0-.5,0-.45-.02-.74.31-.89.54l-.06.1c.04.06.07.1.07.1.15.22.44.53.88.52.2,0,.5,0,.5,0,0,0-.06.33.07.51.17.23.62.23.62.23,0,0,.02-.42.2-.66.15-.21.44-.25.69-.25h3.95c.25,0,.54.05.69.25.18.25.2.66.2.66,0,0,.45,0,.62-.23.14-.19.07-.51.07-.51,0,0,.3,0,.5,0,.45.02.74-.3.88-.52,0,0,.03-.04.07-.1l-.06-.1c-.15-.23-.44-.56-.89-.54Z"/>
  <path class="cls-8" d="M745.72,516.8c-.15-.23-.44-.56-.89-.54-.2,0-.5,0-.5,0,0,0,.06-.33-.07-.51-.17-.23-.62-.23-.62-.23,0,0-.02.42-.2.66-.15.21-.44.25-.69.25v.91c.25,0,.54.05.69.25.18.25.2.66.2.66,0,0,.45,0,.62-.23.14-.19.07-.51.07-.51,0,0,.3,0,.5,0,.45.02.74-.3.88-.52,0,0,.03-.04.07-.1l-.06-.1Z"/>
  <polyline class="cls-8" points="728.61 516.44 742.74 516.44 742.74 517.35 728.61 517.35"/>
  <polyline class="cls-8" points="732.99 530.88 737.91 534.65 738.49 533.97 733.57 530.19"/>
  <polyline class="cls-8" points="735.3 508.37 736.18 508.37 736.08 540.06 735.2 540.06 735.3 508.19"/>
  <path class="cls-22" d="M735.68,540.8c-3.89,0-7.09-2.9-7.59-6.65-.04.33-.08.67-.08,1.02,0,4.23,3.43,7.66,7.66,7.66s7.66-3.43,7.66-7.66c0-.35-.03-.68-.08-1.02-.5,3.75-3.7,6.65-7.59,6.65Z"/>
  <path class="cls-1" d="M738.78,552.4c1.37-.92,2.27-2.49,2.27-4.26,0-2.84-2.3-5.14-5.14-5.14s-5.14,2.3-5.14,5.14c0,1.78.9,3.34,2.27,4.26-.62.36-1.01.84-1.01,1.36.01,1.76,1.73,2.04,3.87,2.04s3.94-.4,3.87-2.04c-.02-.53-.39-1-1.01-1.36Z"/>
  <ellipse class="cls-22" cx="735.92" cy="556.28" rx="2.81" ry="1.55"/>
  <line class="cls-4" x1="611.36" y1="491.45" x2="611.36" y2="437.34"/>
  <line class="cls-4" x1="606.74" y1="443.36" x2="615.98" y2="443.36"/>
  <line class="cls-4" x1="599.44" y1="450.92" x2="623.28" y2="450.92"/>
  <circle class="cls-22" cx="611.36" cy="450.92" r="2.31"/>
  <line class="cls-4" x1="606.74" y1="469.85" x2="615.98" y2="476.92"/>
  <path class="cls-22" d="M611.26,488.74c-5.09,0-9.29-3.8-9.95-8.71-.06.44-.1.88-.1,1.33,0,5.55,4.5,10.04,10.04,10.04s10.04-4.5,10.04-10.04c0-.45-.04-.9-.1-1.33-.65,4.92-4.85,8.71-9.95,8.71Z"/>
  <path class="cls-22" d="M613.01,436.32c-.27-.2-.74-.11-.74-.11,0,0-.01-.45,0-.75.03-.67-.45-1.11-.78-1.33h0l-.15-.09c-.09.06-.15.1-.15.1h0c-.32.22-.77.66-.74,1.33.01.3,0,.75,0,.75,0,0-.47-.09-.74.11-.33.25-.33.93-.33.93,0,0,.6.03.96.3.3.22.37.66.37,1.04h1.32c0-.38.07-.82.37-1.04.36-.26.96-.3.96-.3,0,0,0-.68-.33-.93Z"/>
  <path class="cls-22" d="M606.15,441.71c-.2.27-.11.74-.11.74,0,0-.45.01-.75,0-.67-.03-1.11.45-1.33.78h0l-.09.15c.06.09.1.15.1.15h0c.22.32.66.77,1.33.74.3-.01.75,0,.75,0,0,0-.09.47.11.74.25.33.93.33.93.33,0,0,.03-.6.3-.96.22-.3.66-.37,1.04-.37v-1.32c-.38,0-.82-.07-1.04-.37-.26-.36-.3-.96-.3-.96,0,0-.68,0-.93.33Z"/>
  <path class="cls-22" d="M598.39,449.27c-.2.27-.11.74-.11.74,0,0-.45.01-.75,0-.67-.03-1.11.45-1.33.78h0l-.09.15c.06.09.1.15.1.15h0c.22.32.66.77,1.33.74.3-.01.75,0,.75,0,0,0-.09.47.11.74.25.33.93.33.93.33,0,0,.03-.6.3-.96.22-.3.66-.37,1.04-.37v-1.32c-.38,0-.82-.07-1.04-.37-.26-.36-.3-.96-.3-.96,0,0-.68,0-.93.33Z"/>
  <path class="cls-22" d="M607.04,467.89c-.33.07-.57.49-.57.49,0,0-.35-.29-.57-.49-.49-.46-1.13-.39-1.51-.29h0l-.17.05c-.02.1-.02.18-.02.18h0c-.04.39-.01,1.01.51,1.43.23.19.57.49.57.49,0,0-.38.3-.4.63-.03.41.48.86.48.86,0,0,.42-.43.85-.52.37-.08.74.16,1.03.41l.38-.43.11-.13.38-.43c-.29-.25-.57-.59-.54-.96.03-.44.4-.92.4-.92,0,0-.51-.45-.92-.36Z"/>
  <path class="cls-22" d="M615.66,478.81c.33-.07.57-.49.57-.49,0,0,.35.29.57.49.49.46,1.13.39,1.51.29h0l.17-.05c.02-.1.02-.18.02-.18h0c.04-.39.01-1.01-.51-1.43-.23-.19-.57-.49-.57-.49,0,0,.38-.3.4-.63.03-.41-.48-.86-.48-.86,0,0-.42.43-.85.52-.37.08-.74-.16-1.03-.41l-.38.43-.11.13-.38.43c.29.25.57.59.54.96-.03.44-.4.92-.4.92,0,0,.51.45.92.36Z"/>
  <path class="cls-22" d="M616.61,441.71c.2.27.11.74.11.74,0,0,.45.01.75,0,.67-.03,1.11.45,1.33.78h0l.09.15c-.06.09-.1.15-.1.15h0c-.22.32-.66.77-1.33.74-.3-.01-.75,0-.75,0,0,0,.09.47-.11.74-.25.33-.93.33-.93.33,0,0-.03-.6-.3-.96-.22-.3-.66-.37-1.04-.37v-1.32c.38,0,.82-.07,1.04-.37.26-.36.3-.96.3-.96,0,0,.68,0,.93.33Z"/>
  <path class="cls-22" d="M624.13,449.27c.2.27.11.74.11.74,0,0,.45.01.75,0,.67-.03,1.11.45,1.33.78h0l.09.15c-.06.09-.1.15-.1.15h0c-.22.32-.66.77-1.33.74-.3-.01-.75,0-.75,0,0,0,.09.47-.11.74-.25.33-.93.33-.93.33,0,0-.03-.6-.3-.96-.22-.3-.66-.37-1.04-.37v-1.32c.38,0,.82-.07,1.04-.37.26-.36.3-.96.3-.96,0,0,.68,0,.93.33Z"/>
  <path class="cls-22" d="M614.34,501.56c1.47-.99,2.45-2.68,2.45-4.59,0-3.05-2.47-5.52-5.52-5.52s-5.52,2.47-5.52,5.52c0,1.91.97,3.59,2.45,4.59-.66.39-1.09.9-1.08,1.47.01,1.89,1.86,2.2,4.16,2.2s4.24-.43,4.16-2.2c-.03-.57-.42-1.08-1.08-1.47Z"/>
  <ellipse class="cls-22" cx="611.26" cy="505.73" rx="3.02" ry="1.67"/>
  <line class="cls-4" x1="859.18" y1="491.45" x2="859.18" y2="437.34"/>
  <line class="cls-4" x1="854.56" y1="443.36" x2="863.8" y2="443.36"/>
  <line class="cls-4" x1="847.26" y1="450.92" x2="871.09" y2="450.92"/>
  <circle class="cls-22" cx="859.18" cy="450.92" r="2.31"/>
  <line class="cls-4" x1="854.56" y1="469.85" x2="863.8" y2="476.92"/>
  <path class="cls-22" d="M859.08,488.74c-5.09,0-9.29-3.8-9.95-8.71-.06.44-.1.88-.1,1.33,0,5.55,4.5,10.04,10.04,10.04s10.04-4.5,10.04-10.04c0-.45-.04-.9-.1-1.33-.65,4.92-4.85,8.71-9.95,8.71Z"/>
  <path class="cls-22" d="M860.83,436.32c-.27-.2-.74-.11-.74-.11,0,0-.01-.45,0-.75.03-.67-.45-1.11-.78-1.33h0l-.15-.09c-.09.06-.15.1-.15.1h0c-.32.22-.77.66-.74,1.33.01.3,0,.75,0,.75,0,0-.47-.09-.74.11-.33.25-.33.93-.33.93,0,0,.6.03.96.3.3.22.37.66.37,1.04h1.32c0-.38.07-.82.37-1.04.36-.26.96-.3.96-.3,0,0,0-.68-.33-.93Z"/>
  <path class="cls-22" d="M853.97,441.71c-.2.27-.11.74-.11.74,0,0-.45.01-.75,0-.67-.03-1.11.45-1.33.78h0l-.09.15c.06.09.1.15.1.15h0c.22.32.66.77,1.33.74.3-.01.75,0,.75,0,0,0-.09.47.11.74.25.33.93.33.93.33,0,0,.03-.6.3-.96.22-.3.66-.37,1.04-.37v-1.32c-.38,0-.82-.07-1.04-.37-.26-.36-.3-.96-.3-.96,0,0-.68,0-.93.33Z"/>
  <path class="cls-22" d="M846.21,449.27c-.2.27-.11.74-.11.74,0,0-.45.01-.75,0-.67-.03-1.11.45-1.33.78h0l-.09.15c.06.09.1.15.1.15h0c.22.32.66.77,1.33.74.3-.01.75,0,.75,0,0,0-.09.47.11.74.25.33.93.33.93.33,0,0,.03-.6.3-.96.22-.3.66-.37,1.04-.37v-1.32c-.38,0-.82-.07-1.04-.37-.26-.36-.3-.96-.3-.96,0,0-.68,0-.93.33Z"/>
  <path class="cls-22" d="M854.86,467.89c-.33.07-.57.49-.57.49,0,0-.35-.29-.57-.49-.49-.46-1.13-.39-1.51-.29h0l-.17.05c-.02.1-.02.18-.02.18h0c-.04.39-.01,1.01.51,1.43.23.19.57.49.57.49,0,0-.38.3-.4.63-.03.41.48.86.48.86,0,0,.42-.43.85-.52.37-.08.74.16,1.03.41l.38-.43.11-.13.38-.43c-.29-.25-.57-.59-.54-.96.03-.44.4-.92.4-.92,0,0-.51-.45-.92-.36Z"/>
  <path class="cls-22" d="M863.48,478.81c.33-.07.57-.49.57-.49,0,0,.35.29.57.49.49.46,1.13.39,1.51.29h0l.17-.05c.02-.1.02-.18.02-.18h0c.04-.39.01-1.01-.51-1.43-.23-.19-.57-.49-.57-.49,0,0,.38-.3.4-.63.03-.41-.48-.86-.48-.86,0,0-.42.43-.85.52-.37.08-.74-.16-1.03-.41l-.38.43-.11.13-.38.43c.29.25.57.59.54.96-.03.44-.4.92-.4.92,0,0,.51.45.92.36Z"/>
  <path class="cls-22" d="M864.42,441.71c.2.27.11.74.11.74,0,0,.45.01.75,0,.67-.03,1.11.45,1.33.78h0l.09.15c-.06.09-.1.15-.1.15h0c-.22.32-.66.77-1.33.74-.3-.01-.75,0-.75,0,0,0,.09.47-.11.74-.25.33-.93.33-.93.33,0,0-.03-.6-.3-.96-.22-.3-.66-.37-1.04-.37v-1.32c.38,0,.82-.07,1.04-.37.26-.36.3-.96.3-.96,0,0,.68,0,.93.33Z"/>
  <path class="cls-22" d="M871.94,449.27c.2.27.11.74.11.74,0,0,.45.01.75,0,.67-.03,1.11.45,1.33.78h0l.09.15c-.06.09-.1.15-.1.15h0c-.22.32-.66.77-1.33.74-.3-.01-.75,0-.75,0,0,0,.09.47-.11.74-.25.33-.93.33-.93.33,0,0-.03-.6-.3-.96-.22-.3-.66-.37-1.04-.37v-1.32c.38,0,.82-.07,1.04-.37.26-.36.3-.96.3-.96,0,0,.68,0,.93.33Z"/>
  <path class="cls-22" d="M862.15,501.56c1.47-.99,2.45-2.68,2.45-4.59,0-3.05-2.47-5.52-5.52-5.52s-5.52,2.47-5.52,5.52c0,1.91.97,3.59,2.45,4.59-.66.39-1.09.9-1.08,1.47.01,1.89,1.86,2.2,4.16,2.2s4.24-.43,4.16-2.2c-.03-.57-.42-1.08-1.08-1.47Z"/>
  <ellipse class="cls-22" cx="859.08" cy="505.73" rx="3.02" ry="1.67"/>
  <line class="cls-4" x1="958.9" y1="854.06" x2="958.9" y2="817.99"/>
  <line class="cls-4" x1="955.82" y1="822" x2="961.98" y2="822"/>
  <line class="cls-4" x1="950.96" y1="827.04" x2="966.84" y2="827.04"/>
  <circle class="cls-22" cx="958.9" cy="827.04" r="1.54"/>
  <line class="cls-4" x1="955.82" y1="839.66" x2="961.98" y2="844.38"/>
  <path class="cls-22" d="M958.84,852.25c-3.4,0-6.19-2.53-6.63-5.81-.04.29-.07.59-.07.89,0,3.7,3,6.69,6.69,6.69s6.69-3,6.69-6.69c0-.3-.03-.6-.07-.89-.44,3.28-3.23,5.81-6.63,5.81Z"/>
  <path class="cls-22" d="M960,817.32c-.18-.14-.5-.07-.5-.07,0,0,0-.3,0-.5.02-.45-.3-.74-.52-.89h0l-.1-.06c-.06.04-.1.07-.1.07h0c-.21.15-.51.44-.5.88,0,.2,0,.5,0,.5,0,0-.32-.06-.5.07-.22.17-.22.62-.22.62,0,0,.4.02.64.2.2.15.24.44.24.69h.88c0-.25.04-.54.24-.69.24-.18.64-.2.64-.2,0,0,0-.45-.22-.62Z"/>
  <path class="cls-22" d="M955.43,820.9c-.14.18-.07.5-.07.5,0,0-.3,0-.5,0-.45-.02-.74.3-.89.52h0l-.06.1c.04.06.07.1.07.1h0c.15.21.44.51.88.5.2,0,.5,0,.5,0,0,0-.06.32.07.5.17.22.62.22.62.22,0,0,.02-.4.2-.64.15-.2.44-.24.69-.24v-.88c-.25,0-.54-.04-.69-.24-.18-.24-.2-.64-.2-.64,0,0-.45,0-.62.22Z"/>
  <path class="cls-22" d="M950.26,825.94c-.14.18-.07.5-.07.5,0,0-.3,0-.5,0-.45-.02-.74.3-.89.52h0l-.06.1c.04.06.07.1.07.1h0c.15.21.44.51.88.5.2,0,.5,0,.5,0,0,0-.06.32.07.5.17.22.62.22.62.22,0,0,.02-.4.2-.64.15-.2.44-.24.69-.24v-.88c-.25,0-.54-.04-.69-.24-.18-.24-.2-.64-.2-.64,0,0-.45,0-.62.22Z"/>
  <path class="cls-22" d="M956.02,838.35c-.22.05-.38.33-.38.33,0,0-.23-.19-.38-.33-.33-.31-.75-.26-1.01-.19h0l-.11.03c-.01.07-.02.12-.02.12h0c-.03.26,0,.68.34.95.15.12.38.33.38.33,0,0-.25.2-.27.42-.02.28.32.57.32.57,0,0,.28-.29.57-.35.24-.05.49.11.68.27l.25-.29.07-.08.25-.29c-.19-.17-.38-.39-.36-.64.02-.29.27-.61.27-.61,0,0-.34-.3-.61-.24Z"/>
  <path class="cls-22" d="M961.77,845.63c.22-.05.38-.33.38-.33,0,0,.23.19.38.33.33.31.75.26,1.01.19h0l.11-.03c.01-.07.02-.12.02-.12h0c.03-.26,0-.68-.34-.95-.15-.12-.38-.33-.38-.33,0,0,.25-.2.27-.42.02-.28-.32-.57-.32-.57,0,0-.28.29-.57.35-.24.05-.49-.11-.68-.27l-.25.29-.07.08-.25.29c.19.17.38.39.36.64-.02.29-.27.61-.27.61,0,0,.34.3.61.24Z"/>
  <path class="cls-22" d="M962.4,820.9c.14.18.07.5.07.5,0,0,.3,0,.5,0,.45-.02.74.3.89.52h0l.06.1c-.04.06-.07.1-.07.1h0c-.15.21-.44.51-.88.5-.2,0-.5,0-.5,0,0,0,.06.32-.07.5-.17.22-.62.22-.62.22,0,0-.02-.4-.2-.64-.15-.2-.44-.24-.69-.24v-.88c.25,0,.54-.04.69-.24.18-.24.2-.64.2-.64,0,0,.45,0,.62.22Z"/>
  <path class="cls-22" d="M967.41,825.94c.14.18.07.5.07.5,0,0,.3,0,.5,0,.45-.02.74.3.89.52h0l.06.1c-.04.06-.07.1-.07.1h0c-.15.21-.44.51-.88.5-.2,0-.5,0-.5,0,0,0,.06.32-.07.5-.17.22-.62.22-.62.22,0,0-.02-.4-.2-.64-.15-.2-.44-.24-.69-.24v-.88c.25,0,.54-.04.69-.24.18-.24.2-.64.2-.64,0,0,.45,0,.62.22Z"/>
  <path class="cls-22" d="M961.38,862c1.22-.82,2.02-2.21,2.02-3.79,0-2.52-2.04-4.57-4.57-4.57s-4.57,2.04-4.57,4.57c0,1.58.8,2.97,2.02,3.79-.55.32-.9.74-.89,1.21.01,1.56,1.54,1.82,3.44,1.82s3.5-.35,3.44-1.82c-.02-.47-.34-.89-.89-1.21Z"/>
  <ellipse class="cls-22" cx="958.84" cy="865.44" rx="2.5" ry="1.38"/>
  <line class="cls-4" x1="518.19" y1="853.78" x2="518.19" y2="817.72"/>
  <line class="cls-4" x1="515.11" y1="821.73" x2="521.27" y2="821.73"/>
  <line class="cls-4" x1="510.25" y1="826.76" x2="526.13" y2="826.76"/>
  <circle class="cls-22" cx="518.19" cy="826.76" r="1.54"/>
  <line class="cls-4" x1="515.11" y1="839.38" x2="521.27" y2="844.1"/>
  <path class="cls-22" d="M518.13,851.97c-3.4,0-6.19-2.53-6.63-5.81-.04.29-.07.59-.07.89,0,3.7,3,6.69,6.69,6.69s6.69-3,6.69-6.69c0-.3-.03-.6-.07-.89-.44,3.28-3.23,5.81-6.63,5.81Z"/>
  <path class="cls-22" d="M519.29,817.04c-.18-.14-.5-.07-.5-.07,0,0,0-.3,0-.5.02-.45-.3-.74-.52-.89h0l-.1-.06c-.06.04-.1.07-.1.07h0c-.21.15-.51.44-.5.88,0,.2,0,.5,0,.5,0,0-.32-.06-.5.07-.22.17-.22.62-.22.62,0,0,.4.02.64.2.2.15.24.44.24.69h.88c0-.25.04-.54.24-.69.24-.18.64-.2.64-.2,0,0,0-.45-.22-.62Z"/>
  <path class="cls-22" d="M514.72,820.63c-.14.18-.07.5-.07.5,0,0-.3,0-.5,0-.45-.02-.74.3-.89.52h0l-.06.1c.04.06.07.1.07.1h0c.15.21.44.51.88.5.2,0,.5,0,.5,0,0,0-.06.32.07.5.17.22.62.22.62.22,0,0,.02-.4.2-.64.15-.2.44-.24.69-.24v-.88c-.25,0-.54-.04-.69-.24-.18-.24-.2-.64-.2-.64,0,0-.45,0-.62.22Z"/>
  <path class="cls-22" d="M509.55,825.66c-.14.18-.07.5-.07.5,0,0-.3,0-.5,0-.45-.02-.74.3-.89.52h0l-.06.1c.04.06.07.1.07.1h0c.15.21.44.51.88.5.2,0,.5,0,.5,0,0,0-.06.32.07.5.17.22.62.22.62.22,0,0,.02-.4.2-.64.15-.2.44-.24.69-.24v-.88c-.25,0-.54-.04-.69-.24-.18-.24-.2-.64-.2-.64,0,0-.45,0-.62.22Z"/>
  <path class="cls-22" d="M515.31,838.08c-.22.05-.38.33-.38.33,0,0-.23-.19-.38-.33-.33-.31-.75-.26-1.01-.19h0l-.11.03c-.01.07-.02.12-.02.12h0c-.03.26,0,.68.34.95.15.12.38.33.38.33,0,0-.25.2-.27.42-.02.28.32.57.32.57,0,0,.28-.29.57-.35.24-.05.49.11.68.27l.25-.29.07-.08.25-.29c-.19-.17-.38-.39-.36-.64.02-.29.27-.61.27-.61,0,0-.34-.3-.61-.24Z"/>
  <path class="cls-22" d="M521.06,845.36c.22-.05.38-.33.38-.33,0,0,.23.19.38.33.33.31.75.26,1.01.19h0l.11-.03c.01-.07.02-.12.02-.12h0c.03-.26,0-.68-.34-.95-.15-.12-.38-.33-.38-.33,0,0,.25-.2.27-.42.02-.28-.32-.57-.32-.57,0,0-.28.29-.57.35-.24.05-.49-.11-.68-.27l-.25.29-.07.08-.25.29c.19.17.38.39.36.64-.02.29-.27.61-.27.61,0,0,.34.3.61.24Z"/>
  <path class="cls-22" d="M521.69,820.63c.14.18.07.5.07.5,0,0,.3,0,.5,0,.45-.02.74.3.89.52h0l.06.1c-.04.06-.07.1-.07.1h0c-.15.21-.44.51-.88.5-.2,0-.5,0-.5,0,0,0,.06.32-.07.5-.17.22-.62.22-.62.22,0,0-.02-.4-.2-.64-.15-.2-.44-.24-.69-.24v-.88c.25,0,.54-.04.69-.24.18-.24.2-.64.2-.64,0,0,.45,0,.62.22Z"/>
  <path class="cls-22" d="M526.7,825.66c.14.18.07.5.07.5,0,0,.3,0,.5,0,.45-.02.74.3.89.52h0l.06.1c-.04.06-.07.1-.07.1h0c-.15.21-.44.51-.88.5-.2,0-.5,0-.5,0,0,0,.06.32-.07.5-.17.22-.62.22-.62.22,0,0-.02-.4-.2-.64-.15-.2-.44-.24-.69-.24v-.88c.25,0,.54-.04.69-.24.18-.24.2-.64.2-.64,0,0,.45,0,.62.22Z"/>
  <path class="cls-22" d="M520.67,861.72c1.22-.82,2.02-2.21,2.02-3.79,0-2.52-2.04-4.57-4.57-4.57s-4.57,2.04-4.57,4.57c0,1.58.8,2.97,2.02,3.79-.55.32-.9.74-.89,1.21.01,1.56,1.54,1.82,3.44,1.82s3.5-.35,3.44-1.82c-.02-.47-.34-.89-.89-1.21Z"/>
  <ellipse class="cls-22" cx="518.13" cy="865.16" rx="2.5" ry="1.38"/>
  <circle class="cls-22" cx="510.71" cy="838.01" r=".58"/>
  <circle class="cls-22" cx="508.28" cy="852.61" r=".58"/>
  <line class="cls-6" x1="512.42" y1="826.76" x2="503.63" y2="881.42"/>
  <circle class="cls-22" cx="505.75" cy="868.02" r=".58"/>
  <circle class="cls-22" cx="951.13" cy="837.98" r=".58"/>
  <circle class="cls-22" cx="948.71" cy="852.58" r=".58"/>
  <line class="cls-6" x1="952.85" y1="826.73" x2="944.06" y2="881.39"/>
  <circle class="cls-22" cx="946.18" cy="867.99" r=".58"/>
  <circle class="cls-22" cx="525.55" cy="837.28" r=".58"/>
  <circle class="cls-22" cx="527.97" cy="851.88" r=".58"/>
  <line class="cls-6" x1="523.83" y1="826.03" x2="532.62" y2="880.69"/>
  <circle class="cls-22" cx="530.5" cy="867.29" r=".58"/>
  <circle class="cls-22" cx="966.93" cy="837.95" r=".58"/>
  <circle class="cls-22" cx="969.35" cy="852.55" r=".58"/>
  <line class="cls-6" x1="965.21" y1="826.7" x2="974" y2="881.36"/>
  <circle class="cls-22" cx="971.88" cy="867.96" r=".58"/>
  <circle class="cls-22" cx="845.31" cy="472.35" r="1.12"/>
  <circle class="cls-22" cx="838.95" cy="500.17" r="1.12"/>
  <line class="cls-19" x1="849.91" y1="450.92" x2="826.66" y2="555.05"/>
  <circle class="cls-22" cx="832.29" cy="529.53" r="1.12"/>
  <circle class="cls-22" cx="597.14" cy="472.35" r="1.12"/>
  <circle class="cls-22" cx="590.78" cy="500.17" r="1.12"/>
  <line class="cls-19" x1="601.74" y1="450.92" x2="578.5" y2="555.05"/>
  <circle class="cls-22" cx="584.12" cy="529.53" r="1.12"/>
  <circle class="cls-22" cx="625.91" cy="472.35" r="1.12"/>
  <circle class="cls-22" cx="632.27" cy="500.17" r="1.12"/>
  <line class="cls-19" x1="621.31" y1="450.92" x2="644.55" y2="555.05"/>
  <circle class="cls-22" cx="638.92" cy="529.53" r="1.12"/>
  <path class="cls-22" d="M739.67,384.4c1.47-.99,2.45-2.68,2.45-4.59,0-3.05-2.47-5.52-5.52-5.52s-5.52,2.47-5.52,5.52c0,1.91.97,3.59,2.45,4.59-.66.39-1.09.9-1.08,1.47.01,1.89,1.86,2.2,4.16,2.2s4.24-.43,4.16-2.2c-.03-.57-.42-1.08-1.08-1.47Z"/>
  <ellipse class="cls-22" cx="736.59" cy="388.57" rx="3.02" ry="1.67"/>
  <line class="cls-4" x1="736.59" y1="374.64" x2="736.59" y2="320.53"/>
  <line class="cls-4" x1="731.97" y1="326.55" x2="741.21" y2="326.55"/>
  <line class="cls-4" x1="724.67" y1="334.11" x2="748.5" y2="334.11"/>
  <circle class="cls-22" cx="736.59" cy="334.11" r="2.31"/>
  <line class="cls-4" x1="731.97" y1="353.04" x2="741.21" y2="360.12"/>
  <path class="cls-22" d="M736.49,371.93c-5.09,0-9.29-3.8-9.95-8.71-.06.44-.1.88-.1,1.33,0,5.55,4.5,10.04,10.04,10.04s10.04-4.5,10.04-10.04c0-.45-.04-.9-.1-1.33-.65,4.92-4.85,8.71-9.95,8.71Z"/>
  <path class="cls-22" d="M738.24,319.52c-.27-.2-.74-.11-.74-.11,0,0-.01-.45,0-.75.03-.67-.45-1.11-.78-1.33h0l-.15-.09c-.09.06-.15.1-.15.1h0c-.32.22-.77.66-.74,1.33.01.3,0,.75,0,.75,0,0-.47-.09-.74.11-.33.25-.33.93-.33.93,0,0,.6.03.96.3.3.22.37.66.37,1.04h1.32c0-.38.07-.82.37-1.04.36-.26.96-.3.96-.3,0,0,0-.68-.33-.93Z"/>
  <path class="cls-22" d="M731.38,324.9c-.2.27-.11.74-.11.74,0,0-.45.01-.75,0-.67-.03-1.11.45-1.33.78h0l-.09.15c.06.09.1.15.1.15h0c.22.32.66.77,1.33.74.3-.01.75,0,.75,0,0,0-.09.47.11.74.25.33.93.33.93.33,0,0,.03-.6.3-.96.22-.3.66-.37,1.04-.37v-1.32c-.38,0-.82-.07-1.04-.37-.26-.36-.3-.96-.3-.96,0,0-.68,0-.93.33Z"/>
  <path class="cls-22" d="M723.62,332.46c-.2.27-.11.74-.11.74,0,0-.45.01-.75,0-.67-.03-1.11.45-1.33.78h0l-.09.15c.06.09.1.15.1.15h0c.22.32.66.77,1.33.74.3-.01.75,0,.75,0,0,0-.09.47.11.74.25.33.93.33.93.33,0,0,.03-.6.3-.96.22-.3.66-.37,1.04-.37v-1.32c-.38,0-.82-.07-1.04-.37-.26-.36-.3-.96-.3-.96,0,0-.68,0-.93.33Z"/>
  <path class="cls-22" d="M732.27,351.08c-.33.07-.57.49-.57.49,0,0-.35-.29-.57-.49-.49-.46-1.13-.39-1.51-.29h0l-.17.05c-.02.1-.02.18-.02.18h0c-.04.39-.01,1.01.51,1.43.23.19.57.49.57.49,0,0-.38.3-.4.63-.03.41.48.86.48.86,0,0,.42-.43.85-.52.37-.08.74.16,1.03.41l.38-.43.11-.13.38-.43c-.29-.25-.57-.59-.54-.96.03-.44.4-.92.4-.92,0,0-.51-.45-.92-.36Z"/>
  <path class="cls-22" d="M740.89,362.01c.33-.07.57-.49.57-.49,0,0,.35.29.57.49.49.46,1.13.39,1.51.29h0l.17-.05c.02-.1.02-.18.02-.18h0c.04-.39.01-1.01-.51-1.43-.23-.19-.57-.49-.57-.49,0,0,.38-.3.4-.63.03-.41-.48-.86-.48-.86,0,0-.42.43-.85.52-.37.08-.74-.16-1.03-.41l-.38.43-.11.13-.38.43c.29.25.57.59.54.96-.03.44-.4.92-.4.92,0,0,.51.45.92.36Z"/>
  <path class="cls-22" d="M741.84,324.9c.2.27.11.74.11.74,0,0,.45.01.75,0,.67-.03,1.11.45,1.33.78h0l.09.15c-.06.09-.1.15-.1.15h0c-.22.32-.66.77-1.33.74-.3-.01-.75,0-.75,0,0,0,.09.47-.11.74-.25.33-.93.33-.93.33,0,0-.03-.6-.3-.96-.22-.3-.66-.37-1.04-.37v-1.32c.38,0,.82-.07,1.04-.37.26-.36.3-.96.3-.96,0,0,.68,0,.93.33Z"/>
  <path class="cls-22" d="M749.36,332.46c.2.27.11.74.11.74,0,0,.45.01.75,0,.67-.03,1.11.45,1.33.78h0l.09.15c-.06.09-.1.15-.1.15h0c-.22.32-.66.77-1.33.74-.3-.01-.75,0-.75,0,0,0,.09.47-.11.74-.25.33-.93.33-.93.33,0,0-.03-.6-.3-.96-.22-.3-.66-.37-1.04-.37v-1.32c.38,0,.82-.07,1.04-.37.26-.36.3-.96.3-.96,0,0,.68,0,.93.33Z"/>
  <circle class="cls-22" cx="723.45" cy="356.27" r="1.12"/>
  <circle class="cls-22" cx="717.09" cy="384.09" r="1.12"/>
  <line class="cls-19" x1="728.05" y1="334.84" x2="704.8" y2="438.97"/>
  <circle class="cls-22" cx="710.43" cy="413.44" r="1.12"/>
  <circle class="cls-22" cx="749.91" cy="356.27" r="1.12"/>
  <circle class="cls-22" cx="756.27" cy="384.09" r="1.12"/>
  <line class="cls-19" x1="745.31" y1="334.84" x2="768.55" y2="438.97"/>
  <circle class="cls-22" cx="762.93" cy="413.44" r="1.12"/>
  <circle class="cls-22" cx="873.72" cy="472.35" r="1.12"/>
  <circle class="cls-22" cx="880.08" cy="500.17" r="1.12"/>
  <line class="cls-19" x1="869.12" y1="450.92" x2="892.37" y2="555.05"/>
  <circle class="cls-22" cx="886.74" cy="529.53" r="1.12"/>
  <path class="cls-5" d="M575.52,715.06l-.33-95.99s1.2-5.81,1.25-7.9c.06-2.5-.2-4.58-1.12-8.36-.33-1.35-1.97-4.87-1.97-4.87-1.8-1.73-6.93-7.12-8.09-15.67-.36-2.67-.54-7.2,1.28-12.18,1.76-4.81,4.53-7.69,8.66-11.89,5.04-5.12,7.24-5.71,12.43-10.72,3.96-3.82,6.71-7.37,8.36-9.66h29.64c1.65,2.3,4.4,5.85,8.36,9.66,5.19,5.01,7.39,5.6,12.43,10.72,4.13,4.2,6.9,7.08,8.66,11.89,1.83,4.98,1.64,9.51,1.28,12.18-1.15,8.55-6.28,13.93-8.09,15.67,0,0-1.64,3.52-1.97,4.87-.92,3.78-1.18,5.87-1.12,8.36.05,2.09,1.25,7.9,1.25,7.9l-.33,95.94"/>
  <path class="cls-5" d="M824.3,715.28l-.33-95.99s1.2-5.81,1.25-7.9c.06-2.5-.2-4.58-1.12-8.36-.33-1.35-1.97-4.87-1.97-4.87-1.8-1.73-6.93-7.12-8.09-15.67-.36-2.67-.54-7.2,1.28-12.18,1.76-4.81,4.53-7.69,8.66-11.89,5.04-5.12,7.24-5.71,12.43-10.72,3.96-3.82,6.71-7.37,8.36-9.66h29.64c1.65,2.3,4.4,5.85,8.36,9.66,5.19,5.01,7.39,5.6,12.43,10.72,4.13,4.2,6.9,7.08,8.66,11.89,1.83,4.98,1.64,9.51,1.28,12.18-1.15,8.55-6.28,13.93-8.09,15.67,0,0-1.64,3.52-1.97,4.87-.92,3.78-1.18,5.87-1.12,8.36.05,2.09,1.25,7.9,1.25,7.9l-.33,95.94"/>
  <line class="cls-5" x1="573.36" y1="597.93" x2="648.3" y2="597.93"/>
  <line class="cls-5" x1="821.01" y1="597.93" x2="895.95" y2="597.93"/>
  <line class="cls-5" x1="575.19" y1="619.07" x2="646.47" y2="619.07"/>
  <line class="cls-5" x1="822.84" y1="619.93" x2="894.12" y2="619.93"/>
  <path class="cls-4" d="M800.66,577.48c-.94-5.23-5.7-9.33-11.21-9.33s-10.08,3.97-11.02,9.2h-.21c-.94-5.23-5.52-9.2-11.02-9.2-3.31,0-6.28,1.43-8.33,3.72"/>
  <line class="cls-4" x1="802.45" y1="563.25" x2="754.72" y2="563.25"/>
  <line class="cls-4" x1="802.4" y1="582.29" x2="766.47" y2="582.25"/>
  <path class="cls-4" d="M713.35,572.11c-2.1-2.33-5.14-3.8-8.53-3.8-5.63,0-10.31,4.06-11.28,9.41h-.22c-.96-5.35-5.65-9.41-11.28-9.41s-10.6,4.06-11.57,9.42"/>
  <polyline class="cls-4" points="668.75 563.29 717.6 563.29 758.22 563.27"/>
  <line class="cls-4" x1="668.8" y1="582.78" x2="705.57" y2="582.74"/>
  <path class="cls-23" d="M1016.98,564.8v-7.66c7.66-1.02,13.44-4.53,17.35-10.53,3.9-6,5.86-13.89,5.86-23.67,0-8.46-1.09-15.02-3.26-19.67-2.17-4.65-5.34-8.2-9.49-10.64-4.16-2.44-9.27-3.67-15.32-3.67-4.52,0-8.79.76-12.8,2.27-4.01,1.51-7.36,3.95-10.04,7.31-2.68,3.36-4.48,7.05-5.39,11.08-.91,4.03-1.37,8.36-1.37,13,0,10.14,1.97,18.19,5.91,24.13,3.94,5.95,9.7,9.41,17.29,10.4v7.66c-3.9.11-9.39.21-16.47.3-7.08.09-13.19.25-18.33.46-.33-4.27-.98-9.94-1.97-17.02l.44-.38h1.59l.44.38c.73,2.85,1.3,4.69,1.72,5.53.42.84,1.08,1.44,1.97,1.81.89.37,2.4.55,4.52.55h14.45v-.82c-7.48-3.1-13.23-7.74-17.27-13.93s-6.05-13.32-6.05-21.42c0-7.3,1.57-13.48,4.71-18.55,3.14-5.07,7.81-8.97,14.01-11.71,6.2-2.74,13.75-4.1,22.66-4.1,12.84,0,22.69,3.06,29.55,9.19,6.86,6.13,10.29,14.52,10.29,25.17,0,3.54-.39,6.96-1.18,10.26-.79,3.3-2.13,6.58-4.02,9.82-1.9,3.25-4.34,6.17-7.33,8.76-2.99,2.59-6.59,4.76-10.78,6.51v.82h14.5c3.21,0,5.16-.47,5.85-1.42.69-.95,1.46-3.1,2.3-6.46l.44-.38h1.59l.44.38c-.98,7.04-1.64,12.71-1.97,17.02-5.18-.22-11.25-.37-18.22-.44l-16.58-.33Z"/>
  <path class="cls-23" d="M411.09,565.24l-.49-.44v-2.85l.49-.44c2.66-.04,4.38-.17,5.14-.41.77-.24,1.45-.71,2.05-1.42.6-.71,1.81-3.04,3.64-6.98l5.75-12.48,14.89-33.71c2.81-6.6,5.6-13.21,8.37-19.81h3.56l23.37,54.94,3.12,7.33c.91,2.08,1.96,4.34,3.15,6.79,1.19,2.44,2.01,3.89,2.46,4.32.46.44,1.02.78,1.7,1.01.67.24,2.18.37,4.51.41l.44.44v2.85l-.44.44c-3.87-.33-7.35-.49-10.45-.49-6.06.18-12.11.35-18.17.49l-.44-.44v-2.85l.44-.44c4.09-.07,6.64-.25,7.66-.52s1.53-.9,1.53-1.89c0-.8-.26-1.86-.77-3.17l-6.73-16.69h-31.68l-5.97,14.01c-1.06,2.52-1.59,4.36-1.59,5.53,0,.91.49,1.59,1.48,2.02.99.44,3.47.68,7.44.71l.49.44v2.85l-.44.44c-4.71-.29-8.83-.44-12.37-.44-4.01,0-8.06.15-12.15.44ZM436.04,534.54h27.69l-13.74-33-13.95,33Z"/>
  <path class="cls-23" d="M740.7,1036.3c-11.17-12-37.58-22.64-49.58-25.65-10.93-2.75-23.9-4.44-71.65-1.4-30.41,1.94-56.03,4.93-64.32,5.17-13.42.39-61.31-4.32-118.5-44.29,0,0-.01,0-.01,0,13.88,12.08,19.31,14.99,34.59,24.24,20.47,12.39,54.09,22.7,75.79,24.3,29.25,2.16,94.83-6.94,127.05-4.24,39.1,3.28,66.64,21.89,66.64,21.89Z"/>
  <path class="cls-23" d="M904.32,1018.4c-32.39-1.47-72.59-6.03-96.98-3.99-39.1,3.28-66.64,21.89-66.64,21.89,11.17-12,37.58-22.64,49.58-25.65,10.93-2.75,23.9-4.44,71.65-1.4,18.2,1.16,31.13,2.37,43.21,3.47"/>
  <path class="cls-23" d="M950.04,1012.08c23.49-5.91,49.83-10.59,94.71-41.96,0,0,.01,0,.01,0-13.88,12.08-19.31,14.99-34.59,24.24-19.91,12.05-47.2,22.71-68.92,24.73"/>
  <path class="cls-23" d="M740.69,1047.88s-31.96-9.38-63.95-11.17c-29.59-1.65-78.62.59-115.5.59-17.56,0-32.1,0-74.71-9.26-11.48-2.5-49.23-17.61-49.9-17.91,0,0,0,0,0,0,.51.33,27.89,14.62,47.84,20.7,39.68,12.1,62.44,12.13,83.52,11.74,27.57-.52,82.35-.88,110.3.07,18.92.64,62.4,5.26,62.4,5.26Z"/>
  <path class="cls-23" d="M902.26,1042.47c-29.22-.43-73.99-.69-99.17.16-18.92.64-62.4,5.26-62.4,5.26,0,0,31.96-9.38,63.95-11.17,25.72-1.44,63.88-.03,98.24.38"/>
  <path class="cls-23" d="M919.54,1037.36c17.56,0,32.71-.06,75.31-9.32,11.48-2.5,49.23-17.61,49.9-17.91,0,0,0,0,0,0-.51.33-27.89,14.62-47.84,20.7-39.68,12.1-61.44,12.24-82.52,11.85"/>
  <path class="cls-23" d="M741.3,1058.07s-35.79-7.29-61.67-7.4c-11.91-.05-33.85-.48-47.63-.18-22.33.48-53.75,2-85.38,4.16-11.53.79-27.22.7-49.26.58-12.79-.07-51.41-4.54-51.41-4.54,0,0,30.53,7.61,47.31,8.03,35.77.89,52.06.48,70.49-.17,34.44-1.22,63.25-2.44,77.9-2.7,10.57-.19,29.95-.61,51.01.09,8.61.28,48.64,2.15,48.64,2.15Z"/>
  <path class="cls-23" d="M899.56,1058.07c-26.93-1-46.39-2.02-58.6-2.24-10.57-.19-29.95-.61-51.01.09-8.61.28-48.64,2.15-48.64,2.15,0,0,35.79-7.29,61.67-7.4,11.91-.05,33.85-.48,47.63-.18,14.42.31,30.52.94,50.13,2.01"/>
  <path class="cls-23" d="M911.34,1053.5c9.06.51,15.32.51,24.65,1.14,11.53.79,27.22.7,49.26.58,12.79-.07,51.41-4.54,51.41-4.54,0,0-30.53,7.61-47.31,8.03-35.77.89-52.06.48-70.49-.17-4.33-.15-5.22-.32-9.35-.47"/>
  <line class="cls-7" x1="904.97" y1="1068" x2="1047.32" y2="1068.99"/>
  <path class="cls-7" d="M428.17,1066.95h300.29s1.54,3.06,5.6,4.37c2.61.84,7.11.96,7.11.96h.91s5.05-.12,7.66-.96c4.06-1.31,5.6-4.37,5.6-4.37l143.35,1"/>
  <path class="cls-7" d="M1059.73,709.39c6.52,14.89,15.78,43.86,14.25,81.42-1.59,39.11-15.28,68.06-23.26,82.35l-40.8,21.35s10.93.52,14.97-.18c9.42-1.63,19.87-4.67,19.87-4.67,0,0-20.63,37.48-30.11,48.64-17.34,20.42-79.71,64.91-79.71,64.91l18.96-2.27c-7.14,10.96-18.25,15.46-28.09,24.16-6.19,5.47-19.86,19.02-19.86,19.02,0,0,5.15-47.24,9.13-62.78,4.65-18.15,14.49-39.69,21.81-51.64,8.29-13.54,35.42-48.06,35.42-48.06l6.51,16.42,7.02-31.87c20.13-18.65,48.97-56.47,64.16-107.24,4.21-14.06,7.38-27.61,8.67-39.61l1.05-9.95Z"/>
  <path class="cls-11" d="M903.98,1053.46l4.6-.46-6.8,14.2s-.06-3.98.12-5.29c3.26-23.64,7.45-29.47,11.71-39.95,4.73-11.65,12.71-27.33,19.8-39.06,14.21-23.5,38.23-48.84,50.31-64.51,11.92-15.47,33.41-42.8,44.26-65.76,10.55-22.32,25.76-56.23,29.25-90.04"/>
  <path class="cls-17" d="M1018.55,906.2c-3.8,1.69-9,3.53-15.35,4.54-5.15.81-9.69.86-13.32.64"/>
  <path class="cls-17" d="M1001.8,922.77c-3.72,1.57-8.31,3.17-13.67,4.36-4.64,1.03-8.87,1.53-12.5,1.74"/>
  <ellipse class="cls-11" cx="899.86" cy="1086.05" rx="12.16" ry="2.14"/>
  <path class="cls-11" d="M890.86,1087.86v5.99s-2.94,5.28-8.17,14.76c-.68,1.23-4.1,6.29-4.1,8.96,0,4.01,1.74,6.03,4.14,7.34,2.18,1.19,4.99,1.64,6.72,1.74,2.6.16,10.42.17,10.42.17"/>
  <path class="cls-11" d="M908.87,1087.86v5.99s2.94,5.28,8.17,14.76c.68,1.23,4.1,6.29,4.1,8.96,0,4.01-1.74,6.03-4.14,7.34-2.18,1.19-4.99,1.64-6.72,1.74-2.6.16-10.42.17-10.42.17"/>
  <path class="cls-17" d="M886.3,1114.7c3.35.86,7.34,1.51,13,1.53,7.37.03,14.39-.65,14.53-2.62.03-.49-.83-1.74-6.89-1.66"/>
  <path class="cls-17" d="M891.1,1093.76c1.86.37,3.98.67,6.32.79,4.44.22,8.28-.28,11.25-.92"/>
  <circle class="cls-21" cx="737.36" cy="737.36" r="452.9"/>
</svg>