<?xml version="1.0" encoding="UTF-8"?>
<svg id="Logo" xmlns="http://www.w3.org/2000/svg" viewBox="0 0 1474.72 1474.72">
  <defs>
    <style>
      .cls-1, .cls-2 {
        stroke-width: 4.58px;
      }

      .cls-1, .cls-2, .cls-3, .cls-4, .cls-5, .cls-6, .cls-7, .cls-8 {
        fill: none;
        stroke-miterlimit: 10;
      }

      .cls-1, .cls-3, .cls-4, .cls-5, .cls-8 {
        stroke: #d8b541;
      }

      .cls-2, .cls-6, .cls-7 {
        stroke: #2b2d66;
      }

      .cls-3 {
        stroke-width: 6.86px;
      }

      .cls-4 {
        stroke-width: 1.14px;
      }

      .cls-5 {
        stroke-width: 5.72px;
      }

      .cls-6 {
        stroke-width: 4.1px;
      }

      .cls-7 {
        stroke-width: 5.97px;
      }

      .cls-8 {
        stroke-width: 2.29px;
      }

      .cls-9 {
        fill: #2b2d66;
      }

      .cls-10 {
        fill: #d8b541;
      }
    </style>
  </defs>
  <g>
    <path class="cls-3" d="M1302.65,602.74c-42.6-6.42-95.03-28.59-124.32-72.71-2.89-4.35-5.46-8.75-7.76-13.15-2.93-5.59-5.42-11.18-7.55-16.63-6.73-17.21-9.88-33.05-11.94-43.43-5.47-27.51-3.44-41.5-4.67-60.36-.32-4.84-7.82-99.86-75.35-149.15-34.42-25.12-62.7-32.28-100.52-35.78-4.69-.44-30.32-.33-58.18-5.11-7.47-1.28-13.59-2.44-17.52-3.5-22.06-5.99-28.91-13.57-28.91-13.57"/>
    <path class="cls-5" d="M1171.73,519.07s-11.32-23.31-8.98-52.23c4.77-59.08,64.49-51.22,80.42-38.94,43.16,33.25,17.88,80.4,14.41,107.78-2.68,21.13,5.11,33.18,12.95,38.51,11.83,8.03,24.25,4.26,30.38-.58,11.2-8.86,13.44-26.87,1.87-35.27-17.08-12.41-34.59,5.48-21,19.06"/>
    <circle class="cls-10" cx="1282.89" cy="551.64" r="7.98"/>
    <path class="cls-5" d="M1081.36,255.48s-23.53-15.82-52.48-17.69c-59.15-3.81-59.85,58.29-50.15,73.95,27.33,44.11,76.97,29.3,104.56,29.83,21.29.4,32.09,9.84,36.23,18.37,6.24,12.87.72,24.61-4.97,29.97-10.38,9.8-28.53,9.41-35.17-3.24-9.82-18.7,9.72-32.75,21.2-17.35"/>
    <circle class="cls-10" cx="1095.76" cy="370.74" r="7.98"/>
    <circle class="cls-10" cx="939.31" cy="174.28" r="7.98"/>
    <path class="cls-1" d="M943.98,171.55c-3.21-7.45-17.01-7.01-17.23,7.59-.17,11.1,10.95,24.68,47.32,32.71"/>
    <circle class="cls-10" cx="1004.43" cy="293.53" r="7.98"/>
    <path class="cls-1" d="M1009.55,291.78c3.53,7.3-5.82,17.45-17.01,8.07-8.51-7.13-18.34-35.65,10.85-58.78"/>
    <circle class="cls-10" cx="1050.39" cy="277.22" r="7.98"/>
    <circle class="cls-10" cx="1174.63" cy="346.61" r="7.98"/>
    <path class="cls-1" d="M1051.58,282.5c-7.64,2.71-16.71-7.69-6.16-17.8,8.02-7.68,39.37-15.24,59.17,16.31"/>
    <circle class="cls-10" cx="1045.26" cy="314.01" r="13.38"/>
    <path class="cls-1" d="M1040.77,324.13c-12.53-5.27-11.7-25.11,12.46-28.99,30.01-4.82,44.28,43.84,10.99,47.37"/>
    <circle class="cls-10" cx="1238.37" cy="494.24" r="13.38"/>
    <path class="cls-1" d="M1249.23,492.03c-2.46-13.37-25.73-16.72-33.22,4.59-10.06,28.6,27.46,55.5,45.42,20.57"/>
    <circle class="cls-10" cx="1215.56" cy="450.18" r="7.98"/>
    <path class="cls-1" d="M1210.16,450.24c-.89,8.06,12.13,14.71,20.06,2.44,5.42-8.38,2.02-35.44-36.75-30.22"/>
    <circle class="cls-10" cx="1198.3" cy="490.13" r="7.98"/>
    <path class="cls-1" d="M1202.14,493.94c6.36-5.04,2.13-17.71-12.37-15.98-12.42,1.48-29.01,15.68-5.94,59.79"/>
    <path class="cls-1" d="M1119.91,382.43s-5.06,15.58-5.5,21.47c-1.11,14.92,8.23,20.4,14.31,21.61,12.41,2.48,18.16-9.02,18.16-14.75"/>
    <path class="cls-1" d="M1078.24,339.79s10.81-11.2,25.5-11.82c23.17-.98,32.52,17.81,32.52,17.81"/>
    <path class="cls-5" d="M1062.86,243.79c-2.53-1.78-52.43-19.52-91.91-11.29-9.22,1.92-26.61,5.06-31.64,22.98-1.9,6.77-.54,20.19,12.36,22.33,19.76,3.28,14.07-19.07,14.07-19.07"/>
    <path class="cls-5" d="M947.94,241.78s-21.66,13.12-40.53,7.84c-19.76-5.53-22.64-19.74-21.52-30.51,1.07-10.27,7.3-15.36,7.3-15.36"/>
    <path class="cls-1" d="M1256.9,527.16s-13.07,10.29-17.19,25.07c-5.26,18.89,7.54,34.02,7.54,34.02"/>
    <path class="cls-5" d="M896.38,203.74s4.38,16.52,14.84,27.74c13.38,14.33,40.65,7.64,40.65,7.64"/>
    <path class="cls-1" d="M1162.43,488.36s-11.15-38.71,3.82-79.35c8.18-22.2,21.54-32.45,27.21-44.1,14.11-29.01,1.7-44.69-14.65-44.69-9.93,0-16.94,8.03-17.67,15.68-.53,5.59,2.19,17.52,14.17,16.35"/>
    <path class="cls-1" d="M1184.06,378.72s8.82-6.19,20.6-2.49c10.9,3.43,11.34,19.19,4.62,23.13-45.17,26.5-48.1,64.66-48.1,64.66"/>
    <path class="cls-3" d="M172.21,602.74c42.6-6.42,95.03-28.59,124.32-72.71,2.89-4.35,5.46-8.75,7.76-13.15,2.93-5.59,5.42-11.18,7.55-16.63,6.73-17.21,9.88-33.05,11.94-43.43,5.47-27.51,3.44-41.5,4.67-60.36.32-4.84,7.82-99.86,75.35-149.15,34.42-25.12,62.7-32.28,100.52-35.78,4.69-.44,30.32-.33,58.18-5.11,7.47-1.28,13.59-2.44,17.52-3.5,22.06-5.99,28.91-13.57,28.91-13.57"/>
    <path class="cls-5" d="M303.13,519.07s11.32-23.31,8.98-52.23c-4.77-59.08-64.49-51.22-80.42-38.94-43.16,33.25-17.88,80.4-14.41,107.78,2.68,21.13-5.11,33.18-12.95,38.51-11.83,8.03-24.25,4.26-30.38-.58-11.2-8.86-13.44-26.87-1.87-35.27,17.08-12.41,34.59,5.48,21,19.06"/>
    <circle class="cls-10" cx="191.97" cy="551.64" r="7.98"/>
    <path class="cls-5" d="M393.5,255.48s23.53-15.82,52.48-17.69c59.15-3.81,59.85,58.29,50.15,73.95-27.33,44.11-76.97,29.3-104.56,29.83-21.29.4-32.09,9.84-36.23,18.37-6.24,12.87-.72,24.61,4.97,29.97,10.38,9.8,28.53,9.41,35.17-3.24,9.82-18.7-9.72-32.75-21.2-17.35"/>
    <circle class="cls-10" cx="379.1" cy="370.74" r="7.98"/>
    <circle class="cls-10" cx="535.55" cy="174.28" r="7.98"/>
    <path class="cls-1" d="M530.87,171.55c3.21-7.45,17.01-7.01,17.23,7.59.17,11.1-10.95,24.68-47.32,32.71"/>
    <circle class="cls-10" cx="470.43" cy="293.53" r="7.98"/>
    <path class="cls-1" d="M465.31,291.78c-3.53,7.3,5.82,17.45,17.01,8.07,8.51-7.13,18.34-35.65-10.85-58.78"/>
    <circle class="cls-10" cx="424.46" cy="277.22" r="7.98"/>
    <circle class="cls-10" cx="300.22" cy="346.61" r="7.98"/>
    <path class="cls-1" d="M423.28,282.5c7.64,2.71,16.71-7.69,6.16-17.8-8.02-7.68-39.37-15.24-59.17,16.31"/>
    <circle class="cls-10" cx="429.6" cy="314.01" r="13.38"/>
    <path class="cls-1" d="M434.09,324.13c12.53-5.27,11.7-25.11-12.46-28.99-30.01-4.82-44.28,43.84-10.99,47.37"/>
    <circle class="cls-10" cx="236.49" cy="494.24" r="13.38"/>
    <path class="cls-1" d="M225.63,492.03c2.46-13.37,25.73-16.72,33.22,4.59,10.06,28.6-27.46,55.5-45.42,20.57"/>
    <circle class="cls-10" cx="259.3" cy="450.18" r="7.98"/>
    <path class="cls-1" d="M264.7,450.24c.89,8.06-12.13,14.71-20.06,2.44-5.42-8.38-2.02-35.44,36.75-30.22"/>
    <circle class="cls-10" cx="276.56" cy="490.13" r="7.98"/>
    <path class="cls-1" d="M272.72,493.94c-6.36-5.04-2.13-17.71,12.37-15.98,12.42,1.48,29.01,15.68,5.94,59.79"/>
    <path class="cls-1" d="M354.95,382.43s5.06,15.58,5.5,21.47c1.11,14.92-8.23,20.4-14.31,21.61-12.41,2.48-18.16-9.02-18.16-14.75"/>
    <path class="cls-1" d="M396.62,339.79s-10.81-11.2-25.5-11.82c-23.17-.98-32.52,17.81-32.52,17.81"/>
    <path class="cls-5" d="M412,243.79c2.53-1.78,52.43-19.52,91.91-11.29,9.22,1.92,26.61,5.06,31.64,22.98,1.9,6.77.54,20.19-12.36,22.33-19.76,3.28-14.07-19.07-14.07-19.07"/>
    <path class="cls-5" d="M526.92,241.78s21.66,13.12,40.53,7.84,22.64-19.74,21.52-30.51c-1.07-10.27-7.3-15.36-7.3-15.36"/>
    <path class="cls-1" d="M217.96,527.16s13.07,10.29,17.19,25.07c5.26,18.89-7.54,34.02-7.54,34.02"/>
    <path class="cls-5" d="M578.48,203.74s-4.38,16.52-14.84,27.74c-13.38,14.33-40.65,7.64-40.65,7.64"/>
    <path class="cls-1" d="M312.43,488.36s11.15-38.71-3.82-79.35c-8.18-22.2-21.54-32.45-27.21-44.1-14.11-29.01-1.7-44.69,14.65-44.69,9.93,0,16.94,8.03,17.67,15.68.53,5.59-2.19,17.52-14.17,16.35"/>
    <path class="cls-1" d="M290.79,378.72s-8.82-6.19-20.6-2.49c-10.9,3.43-11.34,19.19-4.62,23.13,45.17,26.5,48.1,64.66,48.1,64.66"/>
    <path class="cls-3" d="M172.21,867.79c42.6,6.42,95.03,28.59,124.32,72.71,2.89,4.35,5.46,8.75,7.76,13.15,2.93,5.59,5.42,11.18,7.55,16.63,6.73,17.21,9.88,33.05,11.94,43.43,5.47,27.51,3.44,41.5,4.67,60.36.32,4.84,7.82,99.86,75.35,149.15,34.42,25.12,62.7,32.28,100.52,35.78,4.69.44,30.32.33,58.18,5.11,7.47,1.28,13.59,2.44,17.52,3.5,22.06,5.99,28.91,13.57,28.91,13.57"/>
    <path class="cls-5" d="M303.13,951.46s11.32,23.31,8.98,52.23c-4.77,59.08-64.49,51.22-80.42,38.94-43.16-33.25-17.88-80.4-14.41-107.78,2.68-21.13-5.11-33.18-12.95-38.51-11.83-8.03-24.25-4.26-30.38.58-11.2,8.86-13.44,26.87-1.87,35.27,17.08,12.41,34.59-5.48,21-19.06"/>
    <circle class="cls-10" cx="191.97" cy="918.89" r="7.98"/>
    <path class="cls-5" d="M393.5,1215.05s23.53,15.82,52.48,17.69c59.15,3.81,59.85-58.29,50.15-73.95-27.33-44.11-76.97-29.3-104.56-29.83-21.29-.4-32.09-9.84-36.23-18.37-6.24-12.87-.72-24.61,4.97-29.97,10.38-9.8,28.53-9.41,35.17,3.24,9.82,18.7-9.72,32.75-21.2,17.35"/>
    <circle class="cls-10" cx="379.1" cy="1099.79" r="7.98"/>
    <circle class="cls-10" cx="535.55" cy="1296.25" r="7.98"/>
    <path class="cls-1" d="M530.87,1298.97c3.21,7.45,17.01,7.01,17.23-7.59.17-11.1-10.95-24.68-47.32-32.71"/>
    <circle class="cls-10" cx="470.43" cy="1176.99" r="7.98"/>
    <path class="cls-1" d="M465.31,1178.75c-3.53-7.3,5.82-17.45,17.01-8.07,8.51,7.13,18.34,35.65-10.85,58.78"/>
    <circle class="cls-10" cx="424.46" cy="1193.3" r="7.98"/>
    <circle class="cls-10" cx="300.22" cy="1123.91" r="7.98"/>
    <path class="cls-1" d="M423.28,1188.03c7.64-2.71,16.71,7.69,6.16,17.8-8.02,7.68-39.37,15.24-59.17-16.31"/>
    <circle class="cls-10" cx="429.6" cy="1156.52" r="13.38"/>
    <path class="cls-1" d="M434.09,1146.39c12.53,5.27,11.7,25.11-12.46,28.99-30.01,4.82-44.28-43.84-10.99-47.37"/>
    <circle class="cls-10" cx="236.49" cy="976.28" r="13.38"/>
    <path class="cls-1" d="M225.63,978.5c2.46,13.37,25.73,16.72,33.22-4.59,10.06-28.6-27.46-55.5-45.42-20.57"/>
    <circle class="cls-10" cx="259.3" cy="1020.35" r="7.98"/>
    <path class="cls-1" d="M264.7,1020.29c.89-8.06-12.13-14.71-20.06-2.44-5.42,8.38-2.02,35.44,36.75,30.22"/>
    <circle class="cls-10" cx="276.56" cy="980.39" r="7.98"/>
    <path class="cls-1" d="M272.72,976.59c-6.36,5.04-2.13,17.71,12.37,15.98,12.42-1.48,29.01-15.68,5.94-59.79"/>
    <path class="cls-1" d="M354.95,1088.09s5.06-15.58,5.5-21.47c1.11-14.92-8.23-20.4-14.31-21.61-12.41-2.48-18.16,9.02-18.16,14.75"/>
    <path class="cls-1" d="M396.62,1130.74s-10.81,11.2-25.5,11.82c-23.17.98-32.52-17.81-32.52-17.81"/>
    <path class="cls-5" d="M412,1226.73c2.53,1.78,52.43,19.52,91.91,11.29,9.22-1.92,26.61-5.06,31.64-22.98,1.9-6.77.54-20.19-12.36-22.33-19.76-3.28-14.07,19.07-14.07,19.07"/>
    <path class="cls-5" d="M526.92,1228.75s21.66-13.12,40.53-7.84c19.76,5.53,22.64,19.74,21.52,30.51-1.07,10.27-7.3,15.36-7.3,15.36"/>
    <path class="cls-1" d="M217.96,943.37s13.07-10.29,17.19-25.07c5.26-18.89-7.54-34.02-7.54-34.02"/>
    <path class="cls-5" d="M578.48,1266.78s-4.38-16.52-14.84-27.74c-13.38-14.33-40.65-7.64-40.65-7.64"/>
    <path class="cls-1" d="M312.43,982.17s11.15,38.71-3.82,79.35c-8.18,22.2-21.54,32.45-27.21,44.1-14.11,29.01-1.7,44.69,14.65,44.69,9.93,0,16.94-8.03,17.67-15.68.53-5.59-2.19-17.52-14.17-16.35"/>
    <path class="cls-1" d="M290.79,1091.8s-8.82,6.19-20.6,2.49c-10.9-3.43-11.34-19.19-4.62-23.13,45.17-26.5,48.1-64.66,48.1-64.66"/>
    <path class="cls-3" d="M1302.65,867.79c-42.6,6.42-95.03,28.59-124.32,72.71-2.89,4.35-5.46,8.75-7.76,13.15-2.93,5.59-5.42,11.18-7.55,16.63-6.73,17.21-9.88,33.05-11.94,43.43-5.47,27.51-3.44,41.5-4.67,60.36-.32,4.84-7.82,99.86-75.35,149.15-34.42,25.12-62.7,32.28-100.52,35.78-4.69.44-30.32.33-58.18,5.11-7.47,1.28-13.59,2.44-17.52,3.5-22.06,5.99-28.91,13.57-28.91,13.57"/>
    <path class="cls-5" d="M1171.73,951.46s-11.32,23.31-8.98,52.23c4.77,59.08,64.49,51.22,80.42,38.94,43.16-33.25,17.88-80.4,14.41-107.78-2.68-21.13,5.11-33.18,12.95-38.51,11.83-8.03,24.25-4.26,30.38.58,11.2,8.86,13.44,26.87,1.87,35.27-17.08,12.41-34.59-5.48-21-19.06"/>
    <circle class="cls-10" cx="1282.89" cy="918.89" r="7.98"/>
    <path class="cls-5" d="M1081.36,1215.05s-23.53,15.82-52.48,17.69c-59.15,3.81-59.85-58.29-50.15-73.95,27.33-44.11,76.97-29.3,104.56-29.83,21.29-.4,32.09-9.84,36.23-18.37,6.24-12.87.72-24.61-4.97-29.97-10.38-9.8-28.53-9.41-35.17,3.24-9.82,18.7,9.72,32.75,21.2,17.35"/>
    <circle class="cls-10" cx="1095.76" cy="1099.79" r="7.98"/>
    <circle class="cls-10" cx="939.31" cy="1296.25" r="7.98"/>
    <path class="cls-1" d="M943.98,1298.97c-3.21,7.45-17.01,7.01-17.23-7.59-.17-11.1,10.95-24.68,47.32-32.71"/>
    <circle class="cls-10" cx="1004.43" cy="1176.99" r="7.98"/>
    <path class="cls-1" d="M1009.55,1178.75c3.53-7.3-5.82-17.45-17.01-8.07-8.51,7.13-18.34,35.65,10.85,58.78"/>
    <circle class="cls-10" cx="1050.39" cy="1193.3" r="7.98"/>
    <circle class="cls-10" cx="1174.63" cy="1123.91" r="7.98"/>
    <path class="cls-1" d="M1051.58,1188.03c-7.64-2.71-16.71,7.69-6.16,17.8,8.02,7.68,39.37,15.24,59.17-16.31"/>
    <circle class="cls-10" cx="1045.26" cy="1156.52" r="13.38"/>
    <path class="cls-1" d="M1040.77,1146.39c-12.53,5.27-11.7,25.11,12.46,28.99,30.01,4.82,44.28-43.84,10.99-47.37"/>
    <circle class="cls-10" cx="1238.37" cy="976.28" r="13.38"/>
    <path class="cls-1" d="M1249.23,978.5c-2.46,13.37-25.73,16.72-33.22-4.59-10.06-28.6,27.46-55.5,45.42-20.57"/>
    <circle class="cls-10" cx="1215.56" cy="1020.35" r="7.98"/>
    <path class="cls-1" d="M1210.16,1020.29c-.89-8.06,12.13-14.71,20.06-2.44,5.42,8.38,2.02,35.44-36.75,30.22"/>
    <circle class="cls-10" cx="1198.3" cy="980.39" r="7.98"/>
    <path class="cls-1" d="M1202.14,976.59c6.36,5.04,2.13,17.71-12.37,15.98-12.42-1.48-29.01-15.68-5.94-59.79"/>
    <path class="cls-1" d="M1119.91,1088.09s-5.06-15.58-5.5-21.47c-1.11-14.92,8.23-20.4,14.31-21.61,12.41-2.48,18.16,9.02,18.16,14.75"/>
    <path class="cls-1" d="M1078.24,1130.74s10.81,11.2,25.5,11.82c23.17.98,32.52-17.81,32.52-17.81"/>
    <path class="cls-5" d="M1062.86,1226.73c-2.53,1.78-52.43,19.52-91.91,11.29-9.22-1.92-26.61-5.06-31.64-22.98-1.9-6.77-.54-20.19,12.36-22.33,19.76-3.28,14.07,19.07,14.07,19.07"/>
    <path class="cls-5" d="M947.94,1228.75s-21.66-13.12-40.53-7.84c-19.76,5.53-22.64,19.74-21.52,30.51,1.07,10.27,7.3,15.36,7.3,15.36"/>
    <path class="cls-1" d="M1256.9,943.37s-13.07-10.29-17.19-25.07c-5.26-18.89,7.54-34.02,7.54-34.02"/>
    <path class="cls-5" d="M896.38,1266.78s4.38-16.52,14.84-27.74c13.38-14.33,40.65-7.64,40.65-7.64"/>
    <path class="cls-1" d="M1162.43,982.17s-11.15,38.71,3.82,79.35c8.18,22.2,21.54,32.45,27.21,44.1,14.11,29.01,1.7,44.69-14.65,44.69-9.93,0-16.94-8.03-17.67-15.68-.53-5.59,2.19-17.52,14.17-16.35"/>
    <path class="cls-1" d="M1184.06,1091.8s8.82,6.19,20.6,2.49c10.9-3.43,11.34-19.19,4.62-23.13-45.17-26.5-48.1-64.66-48.1-64.66"/>
    <path class="cls-3" d="M714.11,265.03l-5.62-219.92c0-17.75,12.86-32.13,28.72-32.13s28.72,14.39,28.72,32.13l-4.41,219.92"/>
    <path class="cls-8" d="M730.48,265.03l-1.64-148.57c0-11.99,2.09-18.64,8.37-18.64s8.37,6.65,8.37,18.64l-1.29,148.57"/>
    <path class="cls-8" d="M673.7,268.64l-8.17-103.48c-.57-8.36.58-13.09,4.95-13.39,4.58-.31,6.15,4.24,6.72,12.6l6.13,103.62"/>
    <path class="cls-8" d="M801.05,267.7l8.17-103.48c.57-8.36-.58-13.09-4.95-13.39-4.58-.31-6.15,4.24-6.72,12.6l-6.13,103.62"/>
    <path class="cls-4" d="M843.49,275.78l12.33-85.59c.92-6.92.22-10.92-3.4-11.4-3.79-.5-5.34,3.2-6.26,10.11l-10.64,85.82"/>
    <path class="cls-4" d="M629.79,275.78l-12.33-85.59c-.92-6.92-.22-10.92,3.4-11.4s5.34,3.2,6.26,10.11l10.64,85.82"/>
    <path class="cls-3" d="M776.95,268.27l6.54-177.54c.89-14.3,11.98-25.25,24.77-24.45,12.78.8,22.42,13.04,21.53,27.35l-14.63,177.04"/>
    <path class="cls-3" d="M697.19,268.27l-6.54-177.54c-.89-14.3-11.98-25.25-24.77-24.45-12.78.8-22.42,13.04-21.53,27.35l14.63,177.04"/>
    <path class="cls-5" d="M646.16,273.28l-12.27-114.4c-1.23-9.2-8.88-15.77-17.11-14.67-8.22,1.1-13.89,9.44-12.67,18.64l18.07,117.62"/>
    <path class="cls-5" d="M827.18,273.11l12.27-114.4c1.23-9.2,8.88-15.77,17.11-14.67,8.22,1.1,13.89,9.44,12.67,18.64l-17.47,113.7"/>
    <path class="cls-3" d="M1210.27,712.36l219.92-5.62c17.75,0,32.13,12.86,32.13,28.72s-14.39,28.72-32.13,28.72l-219.92-4.41"/>
    <path class="cls-8" d="M1210.27,728.72l148.57-1.64c11.99,0,18.64,2.09,18.64,8.37s-6.65,8.37-18.64,8.37l-148.57-1.29"/>
    <path class="cls-8" d="M1206.66,671.95l103.48-8.17c8.36-.57,13.09.58,13.39,4.95.31,4.58-4.24,6.15-12.6,6.72l-103.62,6.13"/>
    <path class="cls-8" d="M1207.6,799.29l103.48,8.17c8.36.57,13.09-.58,13.39-4.95.31-4.58-4.24-6.15-12.6-6.72l-103.62-6.13"/>
    <path class="cls-4" d="M1199.51,841.73l85.59,12.33c6.92.92,10.92.22,11.4-3.4.5-3.79-3.2-5.34-10.11-6.26l-85.82-10.64"/>
    <path class="cls-4" d="M1199.51,628.03l85.59-12.33c6.92-.92,10.92-.22,11.4,3.4.5,3.79-3.2,5.34-10.11,6.26l-85.82,10.64"/>
    <path class="cls-3" d="M1207.03,775.19l177.54,6.54c14.3.89,25.25,11.98,24.45,24.77-.8,12.78-13.04,22.42-27.35,21.53l-177.04-14.63"/>
    <path class="cls-3" d="M1207.03,695.43l177.54-6.54c14.3-.89,25.25-11.98,24.45-24.77-.8-12.78-13.04-22.42-27.35-21.53l-177.04,14.63"/>
    <path class="cls-5" d="M1202.02,644.4l114.4-12.27c9.2-1.23,15.77-8.88,14.67-17.11-1.1-8.22-9.44-13.89-18.64-12.67l-117.62,18.07"/>
    <path class="cls-5" d="M1202.18,825.42l114.4,12.27c9.2,1.23,15.77,8.88,14.67,17.11s-9.44,13.89-18.64,12.67l-113.7-17.47"/>
    <path class="cls-3" d="M759.22,1209.7l5.62,219.92c0,17.75-12.86,32.13-28.72,32.13s-28.72-14.39-28.72-32.13l4.41-219.92"/>
    <path class="cls-8" d="M742.86,1209.7l1.64,148.57c0,11.99-2.09,18.64-8.37,18.64s-8.37-6.65-8.37-18.64l1.29-148.57"/>
    <path class="cls-8" d="M799.63,1206.08l8.17,103.48c.57,8.36-.58,13.09-4.95,13.39-4.58.31-6.15-4.24-6.72-12.6l-6.13-103.62"/>
    <path class="cls-8" d="M672.29,1207.02l-8.17,103.48c-.57,8.36.58,13.09,4.95,13.39s6.15-4.24,6.72-12.6l6.13-103.62"/>
    <path class="cls-4" d="M629.85,1198.94l-12.33,85.59c-.92,6.92-.22,10.92,3.4,11.4,3.79.5,5.34-3.2,6.26-10.11l10.64-85.82"/>
    <path class="cls-4" d="M843.55,1198.94l12.33,85.59c.92,6.92.22,10.92-3.4,11.4s-5.34-3.2-6.26-10.11l-10.64-85.82"/>
    <path class="cls-3" d="M696.39,1206.46l-6.54,177.54c-.89,14.3-11.98,25.25-24.77,24.45-12.78-.8-22.42-13.04-21.53-27.35l14.63-177.04"/>
    <path class="cls-3" d="M776.15,1206.46l6.54,177.54c.89,14.3,11.98,25.25,24.77,24.45,12.78-.8,22.42-13.04,21.53-27.35l-14.63-177.04"/>
    <path class="cls-5" d="M827.18,1201.44l12.27,114.4c1.23,9.2,8.88,15.77,17.11,14.67,8.22-1.1,13.89-9.44,12.67-18.64l-18.07-117.62"/>
    <path class="cls-5" d="M646.16,1201.61l-12.27,114.4c-1.23,9.2-8.88,15.77-17.11,14.67-8.22-1.1-13.89-9.44-12.67-18.64l17.47-113.7"/>
    <path class="cls-3" d="M264.45,757.46l-219.92,5.62c-17.75,0-32.13-12.86-32.13-28.72s14.39-28.72,32.13-28.72l219.92,4.41"/>
    <path class="cls-8" d="M264.45,741.1l-148.57,1.64c-11.99,0-18.64-2.09-18.64-8.37s6.65-8.37,18.64-8.37l148.57,1.29"/>
    <path class="cls-8" d="M268.07,797.87l-103.48,8.17c-8.36.57-13.09-.58-13.39-4.95s4.24-6.15,12.6-6.72l103.62-6.13"/>
    <path class="cls-8" d="M267.13,670.53l-103.48-8.17c-8.36-.57-13.09.58-13.39,4.95-.31,4.58,4.24,6.15,12.6,6.72l103.62,6.13"/>
    <path class="cls-4" d="M275.21,628.09l-85.59-12.33c-6.92-.92-10.92-.22-11.4,3.4-.5,3.79,3.2,5.34,10.11,6.26l85.82,10.64"/>
    <path class="cls-4" d="M275.21,841.79l-85.59,12.33c-6.92.92-10.92.22-11.4-3.4-.5-3.79,3.2-5.34,10.11-6.26l85.82-10.64"/>
    <path class="cls-3" d="M267.69,694.63l-177.54-6.54c-14.3-.89-25.25-11.98-24.45-24.77s13.04-22.42,27.35-21.53l177.04,14.63"/>
    <path class="cls-3" d="M267.69,774.39l-177.54,6.54c-14.3.89-25.25,11.98-24.45,24.77s13.04,22.42,27.35,21.53l177.04-14.63"/>
    <path class="cls-5" d="M272.71,825.42l-114.4,12.27c-9.2,1.23-15.77,8.88-14.67,17.11,1.1,8.22,9.44,13.89,18.64,12.67l117.62-18.07"/>
    <path class="cls-5" d="M272.54,644.4l-114.4-12.27c-9.2-1.23-15.77-8.88-14.67-17.11,1.1-8.22,9.44-13.89,18.64-12.67l113.7,17.47"/>
    <circle class="cls-2" cx="736.88" cy="737.36" r="472.34"/>
  </g>
  <g>
    <circle class="cls-6" cx="737.36" cy="737.36" r="452.9"/>
    <path class="cls-7" d="M832.93,558.3c-2.89-1.02-10.6-4.55-12.97-3.06-49.88,90.36-111.93,173.11-171.11,257.39-.67,1.41-.5,2.76-.25,4.24,1.02,5.84,5.17,14.28,6.48,21.33,6.17,33.15-1.46,68.96-23.54,94.8-7.75,9.09-18.34,16.18-26.24,25.28-55.63,64.15,2.66,121.43,74.3,116.92,138.22-8.72,276.26-128.41,297.45-266.27,16.86-109.66-38.3-213.45-144.12-250.63ZM841.26,604.92c23.72,0,42.95,19.22,42.95,42.94s-19.24,42.95-42.95,42.95-42.94-19.24-42.94-42.95,19.22-42.94,42.94-42.94ZM710.97,1003.95c-20.55,0-37.2-16.67-37.2-37.22s16.65-37.2,37.2-37.2,37.2,16.65,37.2,37.2-16.65,37.22-37.2,37.22ZM816.93,944.2c-25.81,0-46.73-20.92-46.73-46.73s20.92-46.73,46.73-46.73,46.73,20.92,46.73,46.73-20.92,46.73-46.73,46.73ZM872.08,832.23c-30.06,0-54.42-24.36-54.42-54.42s24.36-54.43,54.42-54.43,54.43,24.37,54.43,54.43-24.36,54.42-54.43,54.42Z"/>
    <path class="cls-10" d="M748.18,966.74c0,20.55-16.65,37.22-37.2,37.22s-37.2-16.67-37.2-37.22,16.65-37.2,37.2-37.2,37.2,16.65,37.2,37.2Z"/>
    <circle class="cls-10" cx="816.93" cy="897.48" r="46.73"/>
    <path class="cls-10" d="M884.21,647.86c0,23.72-19.24,42.95-42.95,42.95s-42.94-19.24-42.94-42.95,19.22-42.94,42.94-42.94,42.95,19.22,42.95,42.94Z"/>
    <path class="cls-10" d="M926.51,777.81c0,30.06-24.36,54.42-54.43,54.42s-54.42-24.36-54.42-54.42,24.36-54.43,54.42-54.43,54.43,24.37,54.43,54.43Z"/>
    <path class="cls-7" d="M549.61,603.41c-31.91,22.15-71.25,64.52-53.27,107.2,11.61,27.55,42.17,30.01,67.24,33.82,5.29.8,14.37,4.66,18.06,4.83,1.13.05,2.08-.1,2.93-.91l149.03-206.14c-65.88.99-130.26,23.92-183.99,61.19ZM604.62,678.96c-19.2,0-34.77-15.58-34.77-34.78s15.57-34.77,34.77-34.77,34.78,15.57,34.78,34.77-15.57,34.78-34.78,34.78Z"/>
    <path class="cls-10" d="M639.39,644.18c0,19.2-15.57,34.78-34.78,34.78s-34.77-15.58-34.77-34.78,15.57-34.77,34.77-34.77,34.78,15.57,34.78,34.77Z"/>
    <path class="cls-9" d="M713.71,623.33c7.21,4.79,14.64,9.74,21.57,14.97.7.53,1.52,1.09,2.39,1.68,1.21.82,3.69,2.52,5.01,3.8-76.31,111.73-146.26,211.91-228.04,305.66l-3.83,4.39c-10.39,11.93-21.14,24.26-32.1,35.5-1.02,1.04-2.02,2.15-3.08,3.32-3.37,3.72-7.99,8.82-11.26,8.82-.7,0-1.45-.26-2.28-.79-1.93-1.25-1.96-2-1.97-2.45-.05-1.58.98-4.27,1.81-6.43.21-.55.43-1.1.66-1.67l5.74-1.2c3.45-.72,5.27-3.36,6.14-4.63.09-.13.17-.25.27-.38,7.42-10.28,14.55-22.88,21.45-35.05,4.23-7.47,8.22-14.52,12.24-21.01,60.33-97.45,126.76-195.42,203.09-299.53l.12-.16.11-.17c1.1-1.73,1.69-3.29,1.96-4.66M703.58,609.32l-3.36.55c-80.18,110.79-161.31,223.44-225.71,344.45-5.69,10.69-13.95,24.35-18.16,35.34-2.41,6.31-4.29,11.65,2.5,16.03,1.9,1.22,3.74,1.75,5.52,1.75,7.24,0,13.48-8.67,18.62-13.95,12.43-12.74,24.43-26.7,36.15-40.13,84.32-96.65,157.56-202.36,229.81-308.17,2.04-4.35-6.64-9.08-10.06-11.66-11.37-8.6-23.58-16.12-35.3-24.22h0ZM467.11,983.08c2.82-8.15,7.34-16.18,11.36-23.8,41.3-78.04,91.23-154.56,141.39-227.17,24.1-34.9,49.69-73.43,75.69-106.61,1.04-1.33,6.01-7.73,6.85-7.78.35,0,5.17,2.63,5.32,2.89.67,1.15-.32,3.09-1,4.17-71.43,97.42-139.75,197.17-203.36,299.91-10.79,17.42-21.83,39.61-33.45,55.71-.73,1-1.47,2.39-2.78,2.66h0Z"/>
    <path class="cls-9" d="M706.71,624.79c-71.43,97.42-139.75,197.17-203.36,299.91-10.79,17.42-21.83,39.61-33.45,55.71-.73,1-1.47,2.39-2.78,2.66,2.82-8.15,7.34-16.18,11.36-23.8,41.3-78.04,91.23-154.56,141.38-227.17,24.1-34.9,49.69-73.43,75.69-106.61,1.04-1.33,6.01-7.73,6.85-7.78.35,0,5.17,2.63,5.32,2.89.67,1.15-.32,3.09-1,4.17Z"/>
    <path class="cls-10" d="M936.7,364.88c-.27,1.74-2,1.7-3.2,2.24-54.17,24-50.1,51.32-61.66,102.8-6.65,29.65-24.13,48.79-51.58,61.06-7.07-7.28-14.88-13.42-23.58-18.66-2.39-1.44-12.29-5.48-13.1-6.76-1.01-1.61,1.25-10.63,1.82-13.09,4.86-20.87,17.45-43.04,29.61-60.54,27.95-40.21,69.39-74.26,121.67-67.05ZM807.91,511.49v-15.36c0-6.58,6.01-23.25,8.74-29.89,14.87-36.12,43.24-70.46,77.45-89.5,3.2-4.67-13.28,2.7-14.22,3.13-37.47,17.02-76.77,67.87-88.08,107.09-1.08,3.74-4.42,12.11-1.73,15.14,3.11.3,16.46,10.83,17.84,9.4Z"/>
    <path class="cls-9" d="M789.21,527.88c5.46,3.55,13.47,10.11,15.75,13.49l-51.5,85.51c-4.2-3.34-11.2-8.03-21.89-15.05-1.63-1.07-3.4-2.23-5.17-3.41l1.02-1.4c9.94-13.63,20.94-27.83,34.63-44.67,2.41-2.96,5.79-6.59,9.38-10.44,6.15-6.6,12.51-13.42,15.87-18.91,1.05-1.71,1.69-3.46,1.91-5.12M777.79,516.6c-1.13,0-2.19.23-3.13.78-2.53,1.48-13.35,15.01-16.26,18.4-6.37,7.42-12.69,15.19-18.83,22.8-4.09,5.08-32.38,40.06-32.62,42.74-.24,2.82,41.68,27.4,45.93,33.14.41.34.85.48,1.28.48.7,0,1.39-.37,1.94-.88l55.26-91.74c.99-5.69-16.7-18.38-21.61-21.08-3.13-1.72-7.95-4.63-11.96-4.63h0ZM722.58,603.5c-3.62-.29-8.05-1.95-5.66-6.14,3.6-6.32,12.41-16.13,17.29-22.37,11.39-14.55,24.9-32.52,37.53-45.69,1.16-1.19,3.92-4.42,5.19-4.78.28-.08.71-.12,1.21-.12,1.79,0,4.52.47,4.91,1.04.75,1.12-.13,3.26-.85,4.43-4.92,8.04-18.14,20.51-24.79,28.7-11.94,14.68-23.68,29.63-34.83,44.92h0Z"/>
    <path class="cls-9" d="M782.2,529.88c-4.92,8.04-18.14,20.51-24.79,28.7-11.94,14.68-23.68,29.63-34.83,44.92-3.62-.29-8.05-1.95-5.66-6.14,3.6-6.32,12.41-16.13,17.29-22.37,11.39-14.55,24.9-32.52,37.53-45.69,1.16-1.19,3.92-4.42,5.19-4.78,1.3-.37,5.63.19,6.13.92.75,1.12-.13,3.26-.85,4.43Z"/>
  </g>
</svg>